<svg version="1.1" viewBox="0.0 0.0 800.0 600.0" fill="none" stroke="none" strokeLinecap="square" stroke-miterlimit="10" xmlns:xlink="http://www.w3.org/1999/xlink" xmlns="http://www.w3.org/2000/svg"><clipPath id="p.0"><path d="m0 0l800.0 0l0 600.0l-800.0 0l0 -600.0z" clip-rule="nonzero"/></clipPath><g clip-path="url(#p.0)"><path fill="#000000" fill-opacity="0.0" d="m0 0l800.0 0l0 600.0l-800.0 0z" fill-rule="evenodd"/><path fill="#000000" fill-opacity="0.0" d="m102.65879 270.30447l131.08661 0l0 42.015747l-131.08661 0z" fill-rule="evenodd"/><path fill="#9900ff" d="m116.47129 297.52133q-2.265625 0 -3.359375 -1.171875q-1.09375 -1.1875 -1.09375 -3.796875q0 -2.0 0.671875 -4.328125q0.6875 -2.328125 2.234375 -4.03125q1.546875 -1.71875 3.96875 -1.71875q1.53125 0 2.515625 0.71875q0.984375 0.703125 0.984375 2.15625q0 0.9375 -0.421875 1.515625q-0.40625 0.578125 -1.265625 0.578125q-0.84375 0 -1.65625 -1.0q0.65625 -0.296875 0.859375 -0.703125q0.21875 -0.421875 0.21875 -0.875q0 -0.359375 -0.171875 -0.546875q-0.171875 -0.203125 -0.59375 -0.203125q-0.78125 0 -1.609375 1.25q-0.828125 1.234375 -1.359375 3.234375q-0.53125 1.984375 -0.53125 3.84375q0 1.3125 0.390625 1.921875q0.40625 0.609375 1.46875 0.609375q1.015625 0 1.859375 -0.4375q0.859375 -0.453125 1.65625 -1.515625l1.03125 0.453125q-0.625 1.59375 -1.609375 2.4375q-0.96875 0.84375 -2.078125 1.234375q-1.109375 0.375 -2.109375 0.375zm6.678406 -0.1875q-1.046875 0 -1.71875 -0.65625q-0.65625 -0.671875 -0.65625 -1.953125q0 -0.5 0.171875 -1.296875l2.046875 -9.609375l3.546875 -0.46875l-2.265625 10.609375q-0.0625 0.234375 -0.0625 0.5q0 0.203125 0.0625 0.265625q0.0625 0.046875 0.328125 0.046875q0.390625 0 0.765625 -0.359375q0.390625 -0.375 0.640625 -1.28125l1.59375 0q-0.90625 2.625 -2.09375 3.421875q-1.1875 0.78125 -2.359375 0.78125zm6.246849 -10.4375q-0.765625 0 -1.3125 -0.53125q-0.5312576 -0.546875 -0.5312576 -1.328125q0 -0.765625 0.5312576 -1.3125q0.546875 -0.546875 1.3125 -0.546875q0.78125 0 1.328125 0.546875q0.546875 0.546875 0.546875 1.3125q0 0.78125 -0.546875 1.328125q-0.546875 0.53125 -1.328125 0.53125zm-1.265625 10.4375q-1.0468826 0 -1.7187576 -0.65625q-0.65625 -0.671875 -0.65625 -1.953125q0 -0.5 0.171875 -1.296875l1.328125 -6.28125l3.4531326 0l-1.453125 6.8125q-0.0625 0.234375 -0.0625 0.5q0 0.203125 0.0625 0.265625q0.0625 0.046875 0.328125 0.046875q0.390625 0 0.765625 -0.359375q0.390625 -0.375 0.640625 -1.28125l1.59375 0q-0.90625 2.625 -2.09375 3.421875q-1.1875 0.78125 -2.359375 0.78125zm5.8093414 0q-1.546875 0 -2.421875 -0.828125q-0.875 -0.828125 -0.875 -2.515625q0 -1.34375 0.53125 -2.953125q0.53125 -1.625 1.75 -2.84375q1.234375 -1.21875 3.140625 -1.21875q2.421875 0 2.421875 2.171875q0 1.15625 -0.65625 2.125q-0.640625 0.953125 -1.71875 1.53125q-1.0625 0.578125 -1.9375 0.625q-0.015625 0.234375 -0.015625 0.40625q0 0.75 0.203125 0.96875q0.21875 0.21875 0.765625 0.21875q0.90625 0 1.546875 -0.421875q0.65625 -0.421875 1.578125 -1.46875l1.46875 0q-2.5 4.203125 -5.78125 4.203125zm0.484375 -5.546875q0.109375 -0.015625 0.65625 -0.390625q0.546875 -0.390625 0.875 -1.0q0.34375 -0.625 0.34375 -1.296875q0 -0.375 -0.09375 -0.375q-0.453125 0 -1.03125 1.046875q-0.5625 1.046875 -0.75 2.015625zm10.742126 5.546875q-1.3125 0 -1.953125 -0.71875q-0.625 -0.71875 -0.625 -1.765625q0 -0.421875 0.09375 -0.9375q0.09375 -0.515625 0.203125 -1.0q0.109375 -0.484375 0.15625 -0.609375q0.140625 -0.625 0.265625 -1.234375q0.125 -0.609375 0.125 -0.96875q0 -0.578125 -0.296875 -0.578125q-0.296875 0 -0.59375 0.375q-0.296875 0.375 -0.5 1.0625l-1.328125 6.265625l-3.453125 0l2.140625 -10.078125l3.453125 0l-0.21875 0.4375q0.3125 -0.515625 1.734375 -0.515625q1.109375 0 1.765625 0.640625q0.671875 0.625 0.671875 1.84375q0 0.578125 -0.140625 1.265625q-0.125 0.6875 -0.375 1.640625q-0.15625 0.578125 -0.265625 1.109375q-0.109375 0.53125 -0.109375 0.796875q0 0.25 0.0625 0.328125q0.0625 0.078125 0.3125 0.078125q0.375 0 0.625 -0.3125q0.265625 -0.3125 0.6875 -1.328125l1.546875 0q-0.890625 2.671875 -1.890625 3.4375q-1.0 0.765625 -2.09375 0.765625zm4.437027 0q-1.140625 0 -1.6875 -0.703125q-0.546875 -0.703125 -0.546875 -1.78125q0 -0.53125 0.125 -1.0625l1.078125 -5.140625l-0.609375 0l0.3125 -1.5l0.625 0l0.546875 -2.546875l3.5625 -0.46875q-0.28125 1.21875 -0.296875 1.359375q-0.15625 0.53125 -0.375 1.65625l1.140625 0l-0.3125 1.5l-1.140625 0l-1.125 5.296875q-0.078125 0.375 -0.078125 0.578125q0 0.296875 0.28125 0.296875q0.25 0 1.109375 -0.34375q-0.6875 1.96875 -1.296875 2.421875q-0.59375 0.4375 -1.3125 0.4375z" fill-rule="nonzero"/><path fill="#b4a7d6" d="m4.6115484 312.3517l150.26773 0l0 30.897614l-150.26773 0z" fill-rule="evenodd"/><path stroke="#000000" strokeWidth="1.0" strokeLinejoin="round" strokeLinecap="butt" d="m4.6115484 312.3517l150.26773 0l0 30.897614l-150.26773 0z" fill-rule="evenodd"/><path fill="#000000" d="m22.064674 334.81427q-2.21875 0 -3.859375 -0.8125q-1.640625 -0.8125 -2.531251 -2.296875q-0.875 -1.5 -0.875 -3.484375q0 -2.734375 1.03125 -4.859375q1.046876 -2.125 2.812501 -3.296875q1.78125 -1.171875 3.9375 -1.171875q2.015625 0 3.0625 1.046875q1.046875 1.03125 1.046875 2.734375q0 1.140625 -0.40625 1.828125q-0.390625 0.6875 -1.140625 0.6875q-0.53125 0 -0.828125 -0.234375q-0.296875 -0.25 -0.296875 -0.71875q0 -0.171875 0.078125 -0.609375q0.109375 -0.5625 0.109375 -0.90625q0 -1.6875 -1.8125 -1.6875q-1.21875 0 -2.34375 0.796875q-1.125 0.796875 -1.8125 2.359375q-0.6875 1.5625 -0.6875 3.703125q0 2.234375 1.25 3.46875q1.25 1.21875 3.6875 1.21875q1.21875 0 2.453125 -0.3125q1.25 -0.3125 2.75 -0.9375q0.28125 -0.109375 0.46875 -0.109375q0.296875 0 0.453125 0.21875q0.15625 0.21875 0.15625 0.578125q0 1.140625 -1.234375 1.671875q-1.328125 0.578125 -2.765625 0.859375q-1.421875 0.265625 -2.703125 0.265625zm6.5638123 0q-0.703125 0 -1.0 -0.75q-0.28125 -0.75 -0.28125 -2.390625q0 -2.421875 0.6875 -4.609375q0.171875 -0.53125 0.546875 -0.78125q0.390625 -0.25 1.078125 -0.25q0.375 0 0.515625 0.09375q0.15625 0.09375 0.15625 0.34375q0 0.296875 -0.28125 1.34375q-0.1875 0.75 -0.296875 1.3125q-0.109375 0.5625 -0.1875 1.375q0.609375 -1.609375 1.375 -2.609375q0.765625 -1.0 1.5 -1.421875q0.734375 -0.4375 1.359375 -0.4375q1.203125 0 1.203125 1.203125q0 0.25 -0.15625 1.171875q-0.15625 0.75 -0.15625 0.9375q0 0.65625 0.46875 0.65625q0.515625 0 1.34375 -0.828125q0.234375 -0.234375 0.5 -0.234375q0.25 0 0.390625 0.21875q0.140625 0.203125 0.140625 0.5625q0 0.6875 -0.375 1.078125q-0.53125 0.546875 -1.234375 0.9375q-0.6875 0.375 -1.46875 0.375q-1.0 0 -1.515625 -0.5q-0.5 -0.515625 -0.5 -1.375q0 -0.265625 0.046875 -0.546875q0.046875 -0.375 0.046875 -0.515625q0 -0.296875 -0.21875 -0.296875q-0.265625 0 -0.734375 0.625q-0.453125 0.625 -0.90625 1.65625q-0.4375 1.03125 -0.71875 2.15625q-0.203125 0.890625 -0.484375 1.203125q-0.265625 0.296875 -0.84375 0.296875zm15.488602 -4.25q0.234375 0 0.375 0.21875q0.140625 0.21875 0.140625 0.609375q0 0.75 -0.34375 1.15625q-0.703125 0.84375 -1.96875 1.5625q-1.25 0.703125 -2.6875 0.703125q-1.953125 0 -3.046875 -1.0625q-1.078125 -1.0625 -1.078125 -2.90625q0 -1.296875 0.546875 -2.40625q0.546875 -1.109375 1.5 -1.75q0.96875 -0.65625 2.171875 -0.65625q1.078125 0 1.734375 0.640625q0.65625 0.640625 0.65625 1.734375q0 1.296875 -0.921875 2.21875q-0.921875 0.921875 -3.125 1.46875q0.46875 0.859375 1.765625 0.859375q0.84375 0 1.90625 -0.59375q1.078125 -0.59375 1.875 -1.546875q0.21875 -0.25 0.5 -0.25zm-4.703125 -2.703125q-0.6875 0 -1.171875 0.796875q-0.46875 0.796875 -0.46875 1.9375l0 0.046875q1.09375 -0.265625 1.734375 -0.78125q0.640625 -0.53125 0.640625 -1.21875q0 -0.359375 -0.203125 -0.5625q-0.203125 -0.21875 -0.53125 -0.21875zm5.910446 6.953125q-1.15625 0 -1.84375 -0.828125q-0.6875 -0.84375 -0.6875 -2.21875q0 -1.484375 0.6875 -2.8125q0.6875 -1.34375 1.828125 -2.15625q1.15625 -0.8125 2.4375 -0.8125q0.421875 0 0.5625 0.171875q0.140625 0.15625 0.234375 0.5625q0.390625 -0.078125 0.8125 -0.078125q0.921875 0 0.921875 0.65625q0 0.390625 -0.28125 1.859375q-0.4375 2.140625 -0.4375 2.984375q0 0.28125 0.140625 0.453125q0.140625 0.171875 0.359375 0.171875q0.359375 0 0.859375 -0.453125q0.515625 -0.46875 1.375 -1.5q0.21875 -0.25 0.5 -0.25q0.234375 0 0.375 0.21875q0.140625 0.21875 0.140625 0.609375q0 0.75 -0.34375 1.15625q-0.765625 0.953125 -1.625 1.609375q-0.859375 0.65625 -1.671875 0.65625q-0.609375 0 -1.125 -0.421875q-0.515625 -0.421875 -0.765625 -1.140625q-0.96875 1.5625 -2.453125 1.5625zm0.671875 -1.890625q0.40625 0 0.78125 -0.484375q0.375 -0.484375 0.546875 -1.28125l0.6875 -3.4375q-0.78125 0.015625 -1.453125 0.59375q-0.65625 0.5625 -1.046875 1.5q-0.390625 0.9375 -0.390625 1.984375q0 0.578125 0.234375 0.859375q0.234375 0.265625 0.640625 0.265625zm14.127808 -2.359375q0.234375 0 0.375 0.21875q0.140625 0.21875 0.140625 0.609375q0 0.75 -0.34375 1.15625q-0.8125 1.0 -1.765625 1.640625q-0.953125 0.625 -2.171875 0.625q-3.8125 0 -3.8125 -5.359375q0 -0.8125 0.0625 -1.65625l-0.734375 0q-0.5625 0 -0.765625 -0.203125q-0.1875 -0.203125 -0.1875 -0.65625q0 -1.046875 0.84375 -1.046875l1.0625 0q0.3125 -2.046875 0.96875 -3.734375q0.65625 -1.703125 1.578125 -2.703125q0.921875 -1.015625 1.984375 -1.015625q0.78125 0 1.234375 0.6875q0.453125 0.6875 0.453125 1.734375q0 2.890625 -2.4375 5.03125l2.09375 0q0.296875 0 0.421875 0.140625q0.140625 0.125 0.140625 0.484375q0 1.28125 -2.109375 1.28125l-2.28125 0q-0.03125 0.9375 -0.03125 1.453125q0 1.9375 0.453125 2.734375q0.453125 0.78125 1.453125 0.78125q0.796875 0 1.40625 -0.484375q0.625 -0.484375 1.46875 -1.46875q0.21875 -0.25 0.5 -0.25zm-3.265625 -10.34375q-0.28125 0 -0.625 0.703125q-0.34375 0.703125 -0.65625 1.953125q-0.3125 1.234375 -0.515625 2.734375q1.109375 -0.953125 1.65625 -2.125q0.546875 -1.1875 0.546875 -2.15625q0 -1.109375 -0.40625 -1.109375zm8.956909 10.90625q0.234375 0 0.375 0.21875q0.140625 0.21875 0.140625 0.609375q0 0.671875 -0.3125 1.15625q-0.53125 0.8125 -1.375 1.265625q-0.84375 0.4375 -2.015625 0.4375q-1.796875 0 -2.796875 -1.0625q-0.984375 -1.078125 -0.984375 -2.90625q0 -1.296875 0.546875 -2.40625q0.546875 -1.109375 1.5 -1.75q0.96875 -0.65625 2.171875 -0.65625q1.078125 0 1.734375 0.640625q0.65625 0.640625 0.65625 1.734375q0 1.296875 -0.921875 2.21875q-0.921875 0.921875 -3.140625 1.46875q0.4375 0.859375 1.515625 0.859375q0.75 0 1.25 -0.359375q0.5 -0.359375 1.15625 -1.203125q0.21875 -0.265625 0.5 -0.265625zm-3.0625 -3.265625q-0.6875 0 -1.171875 0.796875q-0.46875 0.796875 -0.46875 1.9375l0 0.046875q1.09375 -0.265625 1.734375 -0.78125q0.640625 -0.53125 0.640625 -1.21875q0 -0.359375 -0.203125 -0.5625q-0.203125 -0.21875 -0.53125 -0.21875zm23.455383 -4.265625q0 1.59375 -0.828125 2.921875q-0.8125 1.3125 -2.390625 2.15625q-1.5625 0.84375 -3.734375 0.984375l-0.796875 4.5q-0.46875 2.59375 -2.53125 2.59375q-1.140625 0 -2.109375 -0.671875q-0.953125 -0.671875 -1.53125 -2.046875q-0.578125 -1.390625 -0.578125 -3.390625q0 -3.796875 1.21875 -6.4375q1.21875 -2.640625 3.28125 -3.953125q2.0625 -1.3125 4.546875 -1.3125q1.75 0 2.96875 0.625q1.234375 0.609375 1.859375 1.671875q0.625 1.046875 0.625 2.359375zm-6.609375 4.140625q3.828125 -0.484375 3.828125 -3.96875q0 -1.234375 -0.8125 -2.0q-0.8125 -0.78125 -2.515625 -0.78125q-1.921875 0 -3.34375 1.21875q-1.421875 1.203125 -2.203125 3.359375q-0.78125 2.15625 -0.78125 4.921875q0 1.15625 0.234375 2.0625q0.234375 0.890625 0.59375 1.390625q0.375 0.484375 0.703125 0.484375q0.46875 0 0.71875 -1.28125l0.609375 -3.53125q-0.71875 -0.109375 -0.625 -0.09375q-0.5625 -0.09375 -0.734375 -0.34375q-0.171875 -0.25 -0.171875 -0.640625q0 -0.421875 0.234375 -0.65625q0.234375 -0.25 0.640625 -0.25q0.1875 0 0.28125 0.015625q0.453125 0.078125 0.6875 0.09375q0.25 -1.453125 0.703125 -3.890625q0.109375 -0.640625 0.5 -0.90625q0.40625 -0.265625 0.953125 -0.265625q0.609375 0 0.875 0.234375q0.28125 0.234375 0.28125 0.734375q0 0.296875 -0.046875 0.484375l-0.609375 3.609375zm7.3670197 7.078125q-0.703125 0 -1.0 -0.75q-0.28125 -0.75 -0.28125 -2.390625q0 -2.421875 0.6875 -4.609375q0.171875 -0.53125 0.546875 -0.78125q0.390625 -0.25 1.078125 -0.25q0.375 0 0.515625 0.09375q0.15625 0.09375 0.15625 0.34375q0 0.296875 -0.28125 1.34375q-0.1875 0.75 -0.296875 1.3125q-0.109375 0.5625 -0.1875 1.375q0.609375 -1.609375 1.375 -2.609375q0.765625 -1.0 1.5 -1.421875q0.734375 -0.4375 1.359375 -0.4375q1.203125 0 1.203125 1.203125q0 0.25 -0.15625 1.171875q-0.15625 0.75 -0.15625 0.9375q0 0.65625 0.46875 0.65625q0.515625 0 1.34375 -0.828125q0.234375 -0.234375 0.5 -0.234375q0.25 0 0.390625 0.21875q0.140625 0.203125 0.140625 0.5625q0 0.6875 -0.375 1.078125q-0.53125 0.546875 -1.234375 0.9375q-0.6875 0.375 -1.46875 0.375q-1.0 0 -1.515625 -0.5q-0.5 -0.515625 -0.5 -1.375q0 -0.265625 0.046875 -0.546875q0.046875 -0.375 0.046875 -0.515625q0 -0.296875 -0.21875 -0.296875q-0.265625 0 -0.734375 0.625q-0.453125 0.625 -0.90625 1.65625q-0.4375 1.03125 -0.71875 2.15625q-0.203125 0.890625 -0.484375 1.203125q-0.265625 0.296875 -0.84375 0.296875zm16.676102 -5.828125q0.25 0 0.375 0.25q0.125 0.234375 0.125 0.609375q0 0.90625 -0.53125 1.0625q-1.125 0.390625 -2.46875 0.453125q-0.34375 1.5625 -1.390625 2.515625q-1.046875 0.9375 -2.375 0.9375q-1.125 0 -1.921875 -0.53125q-0.78125 -0.546875 -1.203125 -1.4375q-0.40625 -0.90625 -0.40625 -1.953125q0 -1.421875 0.546875 -2.53125q0.546875 -1.109375 1.484375 -1.734375q0.953125 -0.625 2.109375 -0.625q1.421875 0 2.28125 0.984375q0.875 0.984375 1.03125 2.421875q0.875 -0.0625 2.09375 -0.375q0.140625 -0.046875 0.25 -0.046875zm-6.109375 3.84375q0.59375 0 1.03125 -0.484375q0.4375 -0.484375 0.578125 -1.390625q-0.578125 -0.390625 -0.890625 -1.015625q-0.296875 -0.640625 -0.296875 -1.359375q0 -0.296875 0.0625 -0.59375l-0.09375 0q-0.75 0 -1.25 0.71875q-0.484375 0.71875 -0.484375 2.015625q0 1.03125 0.390625 1.578125q0.40625 0.53125 0.953125 0.53125zm17.804596 -2.265625q0.25 0 0.390625 0.21875q0.140625 0.21875 0.140625 0.609375q0 0.75 -0.359375 1.15625q-0.765625 0.9375 -1.6875 1.609375q-0.921875 0.65625 -1.859375 0.65625q-1.203125 0 -1.765625 -0.859375q-0.546875 -0.859375 -0.546875 -2.28125q0 -0.71875 0.15625 -1.78125q0.171875 -1.0625 0.421875 -2.09375q-1.859375 0 -4.421875 0.171875q-0.40625 2.609375 -0.40625 4.859375q0 1.734375 0.1875 3.625q0.203125 1.90625 0.59375 1.90625q0.1875 0 0.390625 -0.65625q0.203125 -0.65625 0.328125 -1.796875q0.140625 -1.125 0.140625 -2.515625q0 -1.5 -0.171875 -3.265625q-0.03125 -0.515625 0.171875 -0.765625q0.21875 -0.25 0.65625 -0.25q0.390625 0 0.578125 0.203125q0.1875 0.203125 0.21875 0.6875q0.09375 1.359375 0.09375 3.25q0 3.03125 -0.734375 5.1875q-0.734375 2.171875 -2.28125 2.171875q-1.328125 0 -1.90625 -1.90625q-0.578125 -1.90625 -0.578125 -5.734375q0 -2.265625 0.359375 -4.828125q-0.140625 0.015625 -0.34375 0.015625q-0.578125 0 -0.78125 -0.203125q-0.1875 -0.21875 -0.1875 -0.640625q0 -0.46875 0.25 -0.75q0.25 -0.28125 0.96875 -0.328125q0.125 -0.015625 0.40625 -0.015625q0.5 -2.53125 1.28125 -4.578125q0.78125 -2.046875 1.78125 -3.25q1.015625 -1.203125 2.140625 -1.203125q0.875 0 1.34375 0.6875q0.484375 0.671875 0.484375 1.734375q0 3.75 -3.015625 6.375q2.265625 -0.09375 3.671875 -0.09375q0.515625 0 0.84375 0.203125q0.34375 0.1875 0.34375 0.75q0 0.375 -0.125 1.140625q-0.109375 0.765625 -0.265625 1.53125q-0.328125 1.578125 -0.328125 2.09375q0 0.546875 0.140625 0.859375q0.15625 0.296875 0.5 0.296875q0.328125 0 0.8125 -0.4375q0.5 -0.4375 1.46875 -1.515625q0.21875 -0.25 0.5 -0.25zm-6.734375 -11.59375q-0.4375 0 -1.140625 1.953125q-0.6875 1.9375 -1.234375 4.6875q0.921875 -0.640625 1.546875 -1.609375q0.625 -0.984375 0.9375 -2.015625q0.3125 -1.03125 0.3125 -1.90625q0 -1.109375 -0.421875 -1.109375zm3.625 5.828125q-0.78125 0 -1.171875 -0.359375q-0.390625 -0.375 -0.390625 -1.03125q0 -0.640625 0.5 -1.078125q0.515625 -0.4375 1.28125 -0.4375q0.703125 0 1.125 0.34375q0.421875 0.328125 0.421875 0.9375q0 0.75 -0.484375 1.1875q-0.484375 0.4375 -1.28125 0.4375zm9.200027 5.765625q0.234375 0 0.375 0.21875q0.140625 0.21875 0.140625 0.609375q0 0.75 -0.34375 1.15625q-0.8125 1.0 -1.75 1.640625q-0.9375 0.625 -2.140625 0.625q-1.640625 0 -2.4375 -1.484375q-0.78125 -1.5 -0.78125 -3.875q0 -2.265625 0.578125 -5.171875q0.59375 -2.921875 1.734375 -5.0q1.15625 -2.09375 2.734375 -2.09375q0.90625 0 1.40625 0.828125q0.515625 0.828125 0.515625 2.375q0 2.21875 -1.234375 5.15625q-1.21875 2.921875 -3.328125 5.796875q0.125 0.765625 0.421875 1.09375q0.296875 0.328125 0.78125 0.328125q0.765625 0 1.34375 -0.4375q0.578125 -0.4375 1.484375 -1.515625q0.21875 -0.25 0.5 -0.25zm-2.296875 -11.53125q-0.421875 0 -0.96875 1.546875q-0.546875 1.546875 -0.953125 3.84375q-0.40625 2.296875 -0.453125 4.40625q1.328125 -2.1875 2.109375 -4.375q0.78125 -2.203125 0.78125 -4.0q0 -1.421875 -0.515625 -1.421875zm7.9881897 12.09375q0.234375 0 0.375 0.21875q0.140625 0.21875 0.140625 0.609375q0 0.671875 -0.3125 1.15625q-0.53125 0.8125 -1.375 1.265625q-0.84375 0.4375 -2.015625 0.4375q-1.796875 0 -2.796875 -1.0625q-0.984375 -1.078125 -0.984375 -2.90625q0 -1.296875 0.546875 -2.40625q0.546875 -1.109375 1.5 -1.75q0.96875 -0.65625 2.171875 -0.65625q1.078125 0 1.734375 0.640625q0.65625 0.640625 0.65625 1.734375q0 1.296875 -0.921875 2.21875q-0.921875 0.921875 -3.140625 1.46875q0.4375 0.859375 1.515625 0.859375q0.75 0 1.25 -0.359375q0.5 -0.359375 1.15625 -1.203125q0.21875 -0.265625 0.5 -0.265625zm-3.0625 -3.265625q-0.6875 0 -1.171875 0.796875q-0.46875 0.796875 -0.46875 1.9375l0 0.046875q1.09375 -0.265625 1.734375 -0.78125q0.640625 -0.53125 0.640625 -1.21875q0 -0.359375 -0.203125 -0.5625q-0.203125 -0.21875 -0.53125 -0.21875z" fill-rule="nonzero"/><path fill="#000000" fill-opacity="0.0" d="m154.87927 327.80054l27.716522 0.28344727" fill-rule="evenodd"/><path stroke="#000000" strokeWidth="1.0" strokeLinejoin="round" strokeLinecap="butt" stroke-dasharray="8.0,3.0" d="m154.87927 327.80054l21.716843 0.22210693" fill-rule="evenodd"/><path fill="#000000" stroke="#000000" strokeWidth="1.0" strokeLinecap="butt" d="m176.57922 329.6743l4.5547485 -1.6052551l-4.5209656 -1.6980591z" fill-rule="evenodd"/><path fill="#d9d2e9" d="m182.5958 312.61942l131.08661 0l0 30.897644l-131.08661 0z" fill-rule="evenodd"/><path stroke="#000000" strokeWidth="1.0" strokeLinejoin="round" strokeLinecap="butt" stroke-dasharray="8.0,3.0" d="m182.5958 312.61942l131.08661 0l0 30.897644l-131.08661 0z" fill-rule="evenodd"/><path fill="#000000" d="m193.68954 335.94138q-0.234375 0 -0.375 -0.25q-0.109375 -0.109375 -0.1875 -0.328125q-0.0625 -0.203125 0.046875 -0.71875q0.125 -0.53125 0.46875 -1.59375q0.1875 -0.71875 0.296875 -1.03125q0.125 -0.328125 0.125 -0.484375q0 -0.203125 0.046875 -0.34375q0.046875 -0.140625 0.046875 -0.265625q0.109375 0 0.21875 -0.203125q0.109375 -0.21875 0.1875 -0.5625q0.078125 -0.328125 0.140625 -0.515625q0.0625 -0.203125 0.0625 -0.265625q0.09375 -0.15625 0.1875 -0.46875q0.109375 -0.328125 0.328125 -0.765625q0.15625 -0.5625 0.34375 -1.171875q0.1875 -0.609375 0.375 -1.140625q0.203125 -0.53125 0.328125 -0.828125q0.203125 -0.578125 0.3125 -0.8125q0.125 -0.234375 0.015625 -0.296875q-0.140625 -0.09375 -0.09375 -0.375q0.0625 -0.28125 0.40625 -0.5625q0.203125 -0.25 0.40625 -0.34375q0.203125 -0.109375 0.484375 -0.109375q0.296875 0 0.75 0.046875q0.328125 0.015625 0.703125 0.015625q0.390625 0 0.484375 0q0.171875 0.078125 0.40625 0.171875q0.25 0.09375 0.4375 0.171875q0.203125 0.0625 0.203125 0.125q0 0.109375 0.078125 0.140625q0.09375 0.015625 0.1875 0.046875q0.125 0 0.375 0.203125q0.265625 0.203125 0.515625 0.515625q0.265625 0.296875 0.390625 0.625q0.15625 0.3125 0.25 0.59375q0.09375 0.28125 0 0.796875q-0.015625 0.28125 -0.09375 0.5625q-0.0625 0.28125 -0.125 0.375q-0.125 0.078125 -0.21875 0.1875q-0.09375 0.109375 -0.09375 0.203125q0 0.078125 -0.140625 0.3125q-0.125 0.234375 -0.34375 0.546875q-0.203125 0.296875 -0.453125 0.609375q-0.25 0.296875 -0.46875 0.5q-0.25 0.3125 -0.578125 0.578125q-0.328125 0.25 -0.578125 0.421875q-0.484375 0.21875 -1.09375 0.4375q-0.59375 0.21875 -1.140625 0.359375q-0.546875 0.125 -0.90625 0.109375q-0.546875 0.078125 -0.703125 0.140625q-0.15625 0.0625 -0.234375 0.328125q-0.09375 0.25 -0.171875 0.515625q-0.078125 0.25 -0.078125 0.34375q-0.046875 0.078125 -0.1875 0.4375q-0.140625 0.359375 -0.296875 0.84375q-0.15625 0.484375 -0.296875 0.96875q-0.140625 0.46875 -0.21875 0.796875q-0.0625 0.25 -0.21875 0.328125q-0.15625 0.078125 -0.3125 0.078125zm2.421875 -5.9375q0.078125 0.078125 0.53125 0.03125q0.46875 -0.0625 1.046875 -0.296875q0.375 -0.125 0.75 -0.3125q0.390625 -0.1875 0.75 -0.40625q0.1875 -0.125 0.5 -0.40625q0.3125 -0.296875 0.6875 -0.765625q0.0625 -0.09375 0.203125 -0.359375q0.140625 -0.28125 0.25 -0.515625q0.171875 -0.265625 0.328125 -0.78125q0.171875 -0.515625 0.078125 -0.84375q-0.09375 -0.484375 -0.453125 -0.875q-0.34375 -0.390625 -0.84375 -0.546875q-0.421875 -0.078125 -0.6875 -0.078125q-0.265625 0 -0.578125 0.0625q-0.3125 0.09375 -0.4375 0.265625q-0.125 0.15625 -0.359375 0.703125q-0.125 0.265625 -0.375 0.765625q-0.234375 0.5 -0.40625 0.96875q-0.328125 1.234375 -0.625 1.984375q-0.296875 0.734375 -0.375 0.9375q0.015625 0.203125 -0.03125 0.296875q-0.03125 0.078125 0.046875 0.171875zm6.3782806 4.390625q-0.171875 -0.140625 -0.28125 -0.296875q-0.109375 -0.15625 -0.046875 -0.53125q0.046875 -0.515625 0.140625 -0.921875q0.09375 -0.40625 0.21875 -0.921875q0.046875 -0.21875 0.21875 -0.765625q0.1875 -0.546875 0.421875 -1.171875q0.25 -0.640625 0.5 -1.203125q0.265625 -0.578125 0.453125 -0.84375q0.171875 -0.140625 0.4375 -0.125q0.265625 0 0.421875 0.15625q0.203125 0.171875 0.09375 0.59375q-0.109375 0.40625 -0.5625 1.3125q-0.171875 0.40625 -0.296875 0.65625q-0.109375 0.25 -0.125 0.34375q0 0.078125 0.125 0q0.109375 -0.203125 0.40625 -0.46875q0.296875 -0.28125 0.625 -0.53125q0.34375 -0.265625 0.640625 -0.46875q0.296875 -0.203125 0.421875 -0.265625q0.140625 -0.09375 0.328125 -0.15625q0.203125 -0.0625 0.28125 -0.109375q0.4375 -0.203125 0.890625 -0.140625q0.46875 0.046875 0.578125 0.328125q0.03125 0.15625 0.125 0.234375q0.109375 0.0625 0.109375 0.0625q0.0625 0 0.078125 0.0625q0.015625 0.0625 0.015625 0.0625q0 0.125 -0.21875 0.21875q-0.21875 0.09375 -0.515625 0.109375q-0.234375 0.015625 -0.421875 0.09375q-0.1875 0.078125 -0.453125 0.1875q-0.703125 0.40625 -1.328125 0.78125q-0.609375 0.375 -1.203125 1.03125q-0.140625 0.140625 -0.28125 0.328125q-0.140625 0.171875 -0.28125 0.421875q-0.09375 0.09375 -0.1875 0.40625q-0.09375 0.3125 -0.15625 0.609375q-0.0625 0.28125 -0.0625 0.34375q0 0 -0.0625 0.171875q-0.0625 0.171875 -0.1875 0.34375q-0.21875 0.296875 -0.390625 0.328125q-0.171875 0.03125 -0.46875 -0.265625zm7.6537476 0.375q-0.25 0 -0.390625 -0.09375q-0.140625 -0.09375 -0.34375 -0.265625q-0.34375 -0.375 -0.53125 -0.75q-0.171875 -0.375 -0.125 -0.6875q0.0625 -0.15625 0.046875 -0.28125q0 -0.140625 0 -0.140625q-0.09375 -0.09375 -0.0625 -0.125q0.046875 -0.03125 0.078125 -0.109375q0.109375 0 0.078125 -0.203125q-0.046875 -0.140625 0.125 -0.640625q0.1875 -0.515625 0.46875 -0.96875q0.109375 -0.1875 0.328125 -0.484375q0.234375 -0.3125 0.5 -0.609375q0.265625 -0.3125 0.5 -0.5q0.46875 -0.390625 0.828125 -0.59375q0.375 -0.21875 0.796875 -0.3125q0.40625 -0.09375 0.65625 -0.09375q0.25 0 0.53125 0.3125q0.4375 0.1875 0.609375 0.46875q0.1875 0.265625 0.25 0.78125q0.0625 0.546875 -0.09375 1.296875q-0.15625 0.75 -0.890625 1.8125q-0.46875 0.671875 -0.890625 1.015625q-0.40625 0.34375 -0.9375 0.65625q-0.390625 0.265625 -0.75 0.375q-0.359375 0.09375 -0.78125 0.140625zm1.828125 -2.09375q0.421875 -0.453125 0.65625 -0.890625q0.25 -0.4375 0.484375 -1.09375q0.0625 -0.1875 0.078125 -0.46875q0.03125 -0.296875 0 -0.546875q-0.015625 -0.265625 -0.125 -0.296875q-0.203125 -0.140625 -0.484375 -0.09375q-0.265625 0.046875 -0.59375 0.328125q-0.578125 0.484375 -1.015625 1.171875q-0.4375 0.671875 -0.78125 1.578125q-0.203125 0.59375 -0.046875 0.9375q0.171875 0.34375 0.640625 0.234375q0.46875 -0.109375 1.1875 -0.859375zm4.032257 4.390625q-0.140625 0.046875 -0.328125 -0.09375q-0.1875 -0.125 -0.421875 -0.40625q-0.125 -0.15625 -0.203125 -0.328125q-0.0625 -0.171875 -0.015625 -0.546875q0.046875 -0.203125 0.078125 -0.46875q0.03125 -0.25 0.03125 -0.328125q0 -0.125 0.0625 -0.53125q0.0625 -0.421875 0.140625 -0.859375q0.09375 -0.453125 0.125 -0.703125q0.015625 -0.03125 0.03125 -0.09375q0.015625 -0.0625 0.03125 -0.109375q0.046875 -0.21875 0.109375 -0.484375q0.078125 -0.28125 0.125 -0.625q0.15625 -0.5625 0.25 -0.984375q0.09375 -0.4375 0.125 -0.640625q0.015625 -0.28125 0.203125 -0.4375q0.046875 -0.109375 0.125 -0.28125q0.078125 -0.1875 0.171875 -0.328125q0.375 -1.0625 0.609375 -1.671875q0.25 -0.625 0.515625 -1.09375q0.078125 -0.21875 0.171875 -0.453125q0.09375 -0.234375 0.203125 -0.359375q0.125 -0.34375 0.453125 -0.765625q0.328125 -0.421875 0.71875 -0.828125q0.390625 -0.40625 0.734375 -0.703125q0.40625 -0.203125 0.6875 -0.296875q0.296875 -0.09375 0.671875 -0.09375q0.359375 0 0.53125 0.109375q0.1875 0.09375 0.421875 0.3125q0.265625 0.265625 0.328125 0.421875q0.0625 0.140625 0.0625 0.359375q-0.0625 0.234375 -0.203125 0.546875q-0.140625 0.296875 -0.3125 0.59375q-0.171875 0.28125 -0.328125 0.484375q-0.140625 0.1875 -0.21875 0.1875q-0.203125 0.0625 -0.296875 -0.078125q-0.078125 -0.140625 -0.109375 -0.40625q-0.03125 -0.109375 -0.09375 -0.203125q-0.046875 -0.109375 -0.0625 -0.140625q0 -0.0625 0.046875 -0.234375q0.046875 -0.171875 0.109375 -0.3125q0.046875 -0.171875 -0.015625 -0.265625q-0.046875 -0.09375 -0.21875 -0.03125q-0.09375 0.0625 -0.296875 0.234375q-0.203125 0.15625 -0.4375 0.34375q-0.21875 0.1875 -0.40625 0.390625q-0.1875 0.1875 -0.234375 0.3125q-0.046875 0.03125 -0.125 0.171875q-0.0625 0.140625 -0.21875 0.328125q-0.109375 0.1875 -0.203125 0.34375q-0.078125 0.15625 -0.09375 0.21875q-0.015625 0.09375 -0.03125 0.15625q0 0.0625 -0.078125 0.0625q0 -0.015625 -0.0625 0.171875q-0.0625 0.1875 -0.203125 0.453125q-0.0625 0.1875 -0.1875 0.375q-0.109375 0.1875 -0.171875 0.25l0.015625 0q0 0 -0.09375 0.234375q-0.078125 0.21875 -0.171875 0.46875q-0.09375 0.234375 -0.09375 0.265625q0 0.09375 0.28125 0.078125q0.296875 -0.015625 0.671875 -0.09375q0.390625 -0.078125 0.671875 -0.125q0.21875 -0.046875 0.3125 -0.03125q0.109375 0.015625 0.3125 0.078125q0.21875 0.15625 0.265625 0.453125q0.0625 0.28125 0 0.4375q-0.015625 0.09375 -0.3125 0.21875q-0.296875 0.109375 -0.75 0.203125q-0.390625 0.09375 -0.828125 0.1875q-0.4375 0.078125 -0.765625 0.15625q-0.3125 0.0625 -0.359375 0.125q-0.09375 0.03125 -0.15625 0.125q-0.046875 0.078125 -0.078125 0.171875q0 0.109375 -0.015625 0.1875q0 0.078125 -0.03125 0.140625q-0.046875 0.09375 -0.125 0.40625q-0.0625 0.296875 -0.15625 0.65625q-0.09375 0.359375 -0.15625 0.6875q-0.0625 0.3125 -0.09375 0.484375q-0.0625 0.140625 -0.09375 0.328125q-0.03125 0.171875 -0.03125 0.296875q-0.078125 0.140625 -0.109375 0.34375q-0.03125 0.1875 -0.03125 0.3125q0 0.015625 0 0.078125q0 0.046875 -0.03125 0.09375q-0.015625 0.140625 -0.046875 0.46875q-0.015625 0.34375 -0.015625 0.6875l-0.0625 0.53125q-0.015625 0.25 -0.0625 0.4375q-0.046875 0.203125 -0.15625 0.265625zm5.578125 -2.5q-0.28125 -0.03125 -0.515625 -0.375q-0.21875 -0.34375 -0.234375 -0.71875q0.015625 -0.21875 0.0625 -0.515625q0.046875 -0.3125 0.109375 -0.6875q0.09375 -0.34375 0.234375 -0.84375q0.140625 -0.515625 0.28125 -1.03125q0.15625 -0.515625 0.265625 -0.875q0.109375 -0.375 0.140625 -0.4375q0.0625 -0.140625 0.21875 -0.109375q0.171875 0.03125 0.3125 0.140625q0.125 0.09375 0.21875 0.296875q0.109375 0.1875 0.109375 0.53125q0.015625 0.34375 -0.125 0.921875q-0.03125 0.265625 -0.109375 0.46875q-0.0625 0.203125 -0.125 0.40625q-0.046875 0.1875 -0.109375 0.4375q-0.046875 0.25 -0.140625 0.609375q-0.078125 0.359375 -0.15625 0.890625q-0.09375 0.578125 -0.171875 0.75q-0.0625 0.15625 -0.265625 0.140625zm0.796875 -7.828125q-0.015625 -0.203125 0.078125 -0.515625q0.09375 -0.3125 0.265625 -0.578125q0.171875 -0.265625 0.4375 -0.28125q0.09375 0 0.15625 0.015625q0.0625 0.015625 0.296875 0.109375q0.21875 0.234375 0.390625 0.625q0.1875 0.375 0.109375 0.765625q-0.0625 0.390625 -0.546875 0.6875q-0.0625 0.03125 -0.140625 0.03125q-0.0625 0 -0.1875 -0.078125q-0.203125 0 -0.40625 -0.15625q-0.1875 -0.171875 -0.328125 -0.359375q-0.125 -0.203125 -0.125 -0.265625zm2.0319672 7.515625q-0.1875 -0.109375 -0.328125 -0.25q-0.125 -0.15625 -0.125 -0.359375q0 -0.28125 0.078125 -0.625q0.078125 -0.34375 0.15625 -0.640625q0.03125 -0.34375 0.09375 -0.6875q0.078125 -0.34375 0.25 -0.640625q0.21875 -0.703125 0.4375 -1.40625q0.21875 -0.703125 0.390625 -1.453125q0.25 -0.6875 0.4375 -1.21875q0.203125 -0.53125 0.5 -1.34375q0.15625 -0.46875 0.28125 -1.0q0.125 -0.53125 0.390625 -0.96875q0.109375 -0.171875 0.171875 -0.28125q0.0625 -0.125 0.140625 -0.234375q0.015625 -0.078125 0.140625 -0.109375q0.125 -0.03125 0.28125 0q0.15625 0.015625 0.234375 0.109375q0.046875 -0.015625 0.140625 0.109375q0.09375 0.125 0.1875 0.296875q0.09375 0.171875 0.078125 0.28125q0 0.078125 -0.03125 0.203125q-0.03125 0.125 -0.09375 0.25q-0.078125 0.0625 -0.140625 0.203125q-0.0625 0.140625 -0.203125 0.390625q-0.078125 0.234375 -0.140625 0.5q-0.046875 0.25 -0.140625 0.453125q-0.078125 0.21875 -0.1875 0.421875q-0.09375 0.203125 -0.125 0.34375q-0.125 0.421875 -0.3125 0.84375q-0.171875 0.40625 -0.296875 0.875q-0.140625 0.4375 -0.28125 0.921875q-0.125 0.46875 -0.359375 0.90625q-0.125 0.203125 -0.1875 0.515625q-0.0625 0.3125 -0.109375 0.640625q-0.109375 0.328125 -0.203125 0.625q-0.078125 0.28125 -0.078125 0.359375q-0.109375 0.40625 -0.15625 0.8125q-0.046875 0.390625 -0.203125 0.703125q-0.015625 0.1875 -0.09375 0.34375q-0.0625 0.140625 -0.21875 0.1875q-0.15625 0.046875 -0.375 -0.078125zm4.6776276 0.890625q-0.890625 0 -1.421875 -0.609375q-0.53125 -0.625 -0.515625 -1.65625q0.015625 -0.671875 0.25 -1.453125q0.25 -0.78125 0.65625 -1.515625q0.40625 -0.75 0.875 -1.296875q0.484375 -0.546875 0.984375 -0.765625q0.1875 -0.09375 0.390625 -0.140625q0.21875 -0.0625 0.453125 -0.0625q0.203125 0 0.4375 0.0625q0.25 0.046875 0.421875 0.125q0.34375 0.125 0.5625 0.375q0.234375 0.25 0.328125 0.75q0.03125 0.296875 0.015625 0.46875q-0.015625 0.171875 -0.109375 0.4375q-0.21875 0.640625 -0.625 1.15625q-0.40625 0.515625 -0.984375 0.8125q-0.140625 0.09375 -0.328125 0.140625q-0.171875 0.03125 -0.359375 0.03125q-0.375 0 -0.71875 -0.125q-0.328125 -0.140625 -0.546875 -0.375l-0.125 -0.15625l-0.078125 0.171875q-0.171875 0.453125 -0.265625 0.8125q-0.078125 0.359375 -0.078125 0.640625q0 0.21875 0.03125 0.4375q0.046875 0.21875 0.140625 0.359375q0.078125 0.125 0.234375 0.171875q0.15625 0.046875 0.359375 0.046875q0.109375 0 0.234375 -0.015625q0.140625 -0.015625 0.25 -0.046875q0.328125 -0.109375 0.53125 -0.25q0.203125 -0.140625 0.421875 -0.296875l0.078125 -0.03125l-0.015625 -0.015625q0.234375 -0.140625 0.390625 -0.234375q0.171875 -0.09375 0.1875 -0.09375q0.078125 -0.03125 0.140625 -0.09375q0.1875 -0.046875 0.421875 0.09375q0.25 0.140625 0.25 0.359375q-0.015625 0.109375 -0.171875 0.328125q-0.140625 0.203125 -0.34375 0.40625q-0.1875 0.1875 -0.34375 0.234375q-0.03125 0.015625 -0.125 0.0625q-0.09375 0.03125 -0.125 0.078125l0.015625 0q-0.171875 0.21875 -0.34375 0.21875l-0.140625 0q-0.078125 0.125 -0.5 0.296875q-0.40625 0.15625 -0.796875 0.15625zm0.890625 -4.234375q0.265625 0 0.484375 -0.15625q0.21875 -0.15625 0.390625 -0.34375q0.390625 -0.4375 0.484375 -0.921875q0.09375 -0.484375 -0.109375 -0.6875q-0.09375 -0.0625 -0.171875 -0.078125q-0.078125 -0.015625 -0.265625 0.03125q-0.171875 0.015625 -0.46875 0.234375q-0.28125 0.203125 -0.546875 0.484375q-0.265625 0.265625 -0.4375 0.53125l-0.25 0.390625q0.125 -0.046875 0.21875 -0.0625q0.109375 -0.015625 0.125 0.03125q0.046875 0.109375 0.109375 0.25q0.078125 0.125 0.171875 0.21875q0.09375 0.078125 0.265625 0.078125zm7.9465637 5.390625q-0.25 -0.21875 -0.34375 -0.40625q-0.078125 -0.171875 -0.03125 -0.421875q0.046875 -0.234375 0.140625 -0.59375q0.15625 -0.59375 0.328125 -1.0q0.1875 -0.40625 0.359375 -0.84375q0.171875 -0.4375 0.3125 -1.125q0.296875 -0.6875 0.53125 -1.296875q0.234375 -0.625 0.359375 -1.015625q0.125 -0.390625 0.125 -0.390625q0.015625 -0.078125 0.15625 -0.390625q0.140625 -0.328125 0.375 -0.78125q0.234375 -0.453125 0.4375 -0.921875q0.328125 -0.890625 0.546875 -1.53125q0.21875 -0.65625 0.453125 -1.15625q0.234375 -0.515625 0.578125 -1.015625q0.21875 -0.40625 0.546875 -0.5q0.34375 -0.109375 0.640625 0.03125q0.296875 0.140625 0.40625 0.515625q0.09375 0.1875 0.15625 0.4375q0.078125 0.25 0.140625 0.734375q0.0625 0.484375 0.078125 1.390625q0.046875 1.0625 0.03125 2.046875q-0.015625 0.984375 0.015625 1.828125q0.046875 0.828125 0.21875 1.4375q0.046875 0.328125 0.125 0.8125q0.09375 0.46875 0.1875 0.9375q0.109375 0.46875 0.21875 0.796875q0.125 0.3125 0.1875 0.3125q0.09375 0 0.234375 -0.21875q0.140625 -0.21875 0.375 -0.8125q0.25 -0.59375 0.578125 -1.734375q0.34375 -1.140625 0.796875 -2.96875q0.09375 -0.3125 0.25 -1.015625q0.15625 -0.71875 0.234375 -1.453125q0.125 -0.453125 0.25 -1.015625q0.140625 -0.5625 0.234375 -0.984375q0.109375 -0.4375 0.109375 -0.5q0 -0.125 0 -0.21875q0.015625 -0.09375 0 -0.1875q0.09375 0 0.171875 -0.25q0.078125 -0.25 0.078125 -0.4375q0 -0.3125 0.078125 -0.5q0.09375 -0.203125 0.1875 -0.296875q0.109375 -0.234375 0.359375 -0.234375q0.265625 0 0.5 0.140625q0.25 0.140625 0.3125 0.375q0.03125 0.203125 -0.109375 0.921875q-0.140625 0.71875 -0.421875 1.921875q0 0.203125 -0.109375 0.671875q-0.109375 0.46875 -0.234375 1.0q-0.125 0.515625 -0.171875 0.890625q-0.078125 0.484375 -0.171875 0.90625q-0.09375 0.421875 -0.1875 0.390625q-0.484375 2.109375 -1.015625 3.59375q-0.53125 1.484375 -0.9375 2.421875q-0.453125 1.03125 -1.046875 1.265625q-0.578125 0.25 -1.171875 -0.515625q-0.359375 -0.484375 -0.59375 -0.953125q-0.21875 -0.484375 -0.34375 -1.125q-0.125 -0.65625 -0.296875 -1.609375q-0.21875 -0.75 -0.265625 -1.53125q-0.046875 -0.78125 -0.015625 -1.59375q0.03125 -0.828125 0.078125 -1.71875q-0.015625 -0.953125 -0.09375 -1.203125q-0.0625 -0.265625 -0.234375 0.078125q-0.15625 0.34375 -0.484375 1.234375q-0.125 0.359375 -0.328125 0.859375q-0.203125 0.484375 -0.40625 0.96875q-0.1875 0.484375 -0.34375 0.84375q-0.140625 0.359375 -0.1875 0.453125q-0.109375 0.21875 -0.265625 0.578125q-0.140625 0.359375 -0.234375 0.78125q-0.671875 1.75 -1.0 2.875q-0.328125 1.109375 -0.46875 1.53125q-0.1875 0.515625 -0.375 0.65625q-0.1875 0.15625 -0.59375 -0.171875zm12.04007 -1.34375l0.15625 -0.890625q0.125 -0.828125 0.25 -1.546875q0.140625 -0.734375 0.265625 -1.1875q0.125 -0.453125 0.15625 -0.453125q0.078125 -0.03125 0.078125 -0.15625q0 -0.125 0.015625 -0.3125l0.03125 -0.453125l-0.28125 0.03125q-0.21875 -0.03125 -0.265625 -0.09375q-0.03125 -0.0625 -0.03125 -0.328125q0.015625 -0.1875 0.046875 -0.3125q0.046875 -0.140625 0.21875 -0.15625q0.296875 -0.09375 0.625 -0.34375q0.328125 -0.265625 0.3125 -0.4375q0.015625 -0.15625 0.125 -0.546875q0.125 -0.40625 0.328125 -0.921875q0.21875 -0.515625 0.453125 -0.984375q0.078125 -0.234375 0.140625 -0.484375q0.0625 -0.265625 0.0625 -0.390625q0.046875 -0.15625 0.09375 -0.328125q0.0625 -0.1875 0.0625 -0.265625q0.109375 -0.203125 0.03125 -0.234375q-0.078125 -0.03125 -0.34375 0q0 0 -0.171875 0.03125q-0.171875 0.03125 -0.375 0.015625q-0.296875 0.078125 -0.421875 0q-0.109375 -0.09375 -0.171875 -0.25q-0.171875 -0.15625 -0.140625 -0.34375q0.03125 -0.1875 0.1875 -0.171875q0.09375 0.015625 0.15625 -0.03125q0.078125 -0.046875 0.140625 -0.125q0.078125 -0.0625 0.359375 -0.171875q0.28125 -0.125 0.6875 -0.140625q0.1875 -0.015625 0.5 -0.09375q0.3125 -0.078125 0.5625 -0.171875q0.25 -0.09375 0.28125 -0.125q0 -0.09375 0.09375 -0.09375q0.109375 0 0.1875 0q0.078125 -0.015625 0.28125 -0.046875q0.21875 -0.03125 0.28125 -0.015625q0.15625 -0.0625 0.65625 -0.109375q0.50001526 -0.046875 1.5312653 -0.03125q0.296875 0.015625 0.5 0.03125q0.203125 0 0.203125 -0.078125q0 0 0.234375 0.03125q0.25 0.03125 0.546875 0.125q0.453125 0.015625 0.734375 0.125q0.28125 0.09375 0.40625 0.328125q0.125 0.234375 0.125 0.6875l0.03125 0.421875l-0.515625 -0.15625q-0.140625 -0.03125 -0.515625 -0.078125q-0.359375 -0.046875 -0.78125 -0.078125q-0.421875 -0.03125 -0.796875 -0.0625q-0.375 -0.03125 -0.546875 0q-0.1875 0 -0.390625 0.03125q-0.203125 0.03125 -0.42189026 0.015625q-0.25 0.078125 -0.484375 0.078125q-0.234375 0 -0.3125 -0.03125q-0.1875 0.078125 -0.328125 0.078125q-0.140625 0 -0.25 0.09375q0 0 -0.109375 0.0625q-0.09375 0.046875 -0.171875 0.046875q-0.078125 -0.015625 -0.078125 0.09375q0 0.09375 -0.03125 0.375q0.015625 0.265625 -0.03125 0.453125q-0.03125 0.171875 -0.140625 0.453125q-0.109375 0.265625 -0.34375 0.890625q-0.125 0.3125 -0.28125 0.65625q-0.140625 0.328125 -0.171875 0.53125q-0.203125 0.5625 -0.390625 0.859375q0.03125 0.1875 0.0625 0.203125q0.03125 0 0.15625 -0.109375q0.15625 0.0625 0.25 0.015625q0.109375 -0.0625 0.1875 -0.09375q0.0625 0 0.140625 0q0.09375 0 0.234375 0.046875q-0.03125 -0.078125 0.140625 -0.078125q0.171875 -0.015625 0.375 -0.03125q0.203125 -0.09375 0.5 -0.140625q0.3125 -0.046875 0.453125 -0.125q0.203125 -0.09375 0.28125 -0.09375q0.09375 0 0.328125 0.109375q0.14064026 0.171875 0.18751526 0.4375q0.0625 0.25 0.03125 0.46875q-0.015625 0.21875 -0.109375 0.28125q0 0 -0.18751526 0.078125q-0.171875 0.0625 -0.390625 0.140625q-0.203125 -0.046875 -0.390625 0q-0.1875 0.03125 -0.25 0.0625q-0.390625 0.25 -1.296875 0.171875q-0.125 0.09375 -0.3125 0.09375q-0.171875 0 -0.265625 0.078125q-0.046875 0 -0.21875 0.03125q-0.15625 0.015625 -0.21875 0q-0.078125 0 -0.109375 0.109375q-0.015625 0.09375 -0.015625 0.171875q0 0.078125 -0.0625 0.15625q-0.046875 0.0625 -0.046875 0.0625q-0.109375 0.125 -0.125 0.25q0 0 -0.015625 0.234375q0 0.21875 -0.09375 0.46875q-0.15625 0.484375 -0.296875 1.015625q-0.125 0.515625 -0.1875 0.890625q-0.0625 0.375 -0.03125 0.453125q0.078125 0.078125 0.203125 0.109375q0.125 0.03125 0.21875 0.0625q0.09375 -0.078125 0.171875 0.0625q0.078125 0.125 0.109375 0.328125q-0.03125 0.0625 -0.234375 0.296875q-0.1875 0.234375 -0.390625 0.5q-0.234375 0.578125 -0.515625 0.671875q-0.265625 0.09375 -0.640625 -0.25l-0.46875 -0.453125zm10.452927 0.578125q-0.25 0.046875 -0.5 -0.015625q-0.234375 -0.046875 -0.375 -0.328125q-0.125 -0.265625 -0.078125 -0.84375q0.0625 -0.578125 0.40625 -1.546875q0.0625 -0.15625 0.234375 -0.671875q0.1875 -0.515625 0.40625 -1.140625q0.21875 -0.640625 0.4375 -1.1875q0.21875 -0.546875 0.34375 -0.75q0.078125 -0.15625 0.078125 -0.265625q0.015625 -0.125 0.015625 -0.203125q0 -0.09375 0.078125 -0.25q0.09375 -0.15625 0.171875 -0.328125q0.09375 -0.171875 0.15625 -0.328125q0.0625 -0.171875 0.0625 -0.28125q0 0 0.09375 -0.328125q0.09375 -0.328125 0.234375 -0.75q0.15625 -0.4375 0.34375 -0.71875q0.171875 -0.421875 0.3125 -0.6875q0.140625 -0.28125 0.140625 -0.390625q0 -0.03125 -0.40625 -0.03125q-0.40625 0 -0.96875 0.03125q-0.546875 0.015625 -1.046875 0.0625q-0.5 0.03125 -0.703125 0.09375q-0.171875 0.03125 -0.296875 0.0625q-0.125 0.03125 -0.171875 0q-0.0625 -0.03125 -0.1875 -0.21875q-0.125 -0.203125 -0.15625 -0.4375q-0.03125 -0.25 0.1875 -0.359375q0.328125 -0.203125 0.625 -0.25q0.296875 -0.046875 0.640625 -0.046875q0.34375 -0.015625 0.8125 -0.078125q0.4375 0 0.75 -0.046875q0.3125 -0.046875 0.390625 -0.046875q0.1875 0 0.453125 -0.078125q0.28125 -0.078125 0.625 -0.078125q0.25 0 0.484375 -0.046875q0.25 -0.046875 0.4375 -0.046875q0.09375 0 0.4375 0q0.359375 0 0.71875 0q0.265625 0 0.703125 -0.0625q0.453125 -0.078125 0.734375 -0.15625q0.859375 -0.1875 1.359375 -0.078125q0.5 0.09375 0.65625 0.578125q0.078125 0.421875 -0.578125 0.625q-0.640625 0.203125 -2.296875 0.296875q-0.796875 0.078125 -1.109375 0.109375q-0.296875 0.03125 -0.296875 0.203125q0 0.109375 -0.078125 0.203125q-0.078125 0.078125 -0.15625 0.171875q-0.078125 0.03125 -0.234375 0.34375q-0.15625 0.296875 -0.296875 0.703125q-0.140625 0.390625 -0.25 0.71875q-0.109375 0.328125 -0.109375 0.421875q0 0 -0.078125 0.125q-0.0625 0.109375 -0.0625 0.1875q-0.078125 0.1875 -0.203125 0.4375q-0.109375 0.234375 -0.203125 0.421875q-0.28125 0.75 -0.46875 1.203125q-0.171875 0.4375 -0.28125 0.6875q-0.09375 0.25 -0.171875 0.4375q-0.0625 0.25 -0.234375 0.828125q-0.171875 0.578125 -0.359375 1.015625q-0.09375 0.140625 -0.15625 0.1875q-0.0625 0.046875 -0.0625 0.1875q0 0.015625 -0.09375 0.3125q-0.078125 0.296875 -0.21875 0.703125q-0.140625 0.390625 -0.265625 0.78125q-0.125 0.390625 -0.234375 0.65625q-0.109375 0.28125 -0.140625 0.28125z" fill-rule="nonzero"/><path fill="#d9d2e9" d="m311.03674 312.3517l65.51181 0l0 30.897614l-65.51181 0z" fill-rule="evenodd"/><path stroke="#000000" strokeWidth="1.0" strokeLinejoin="round" strokeLinecap="butt" stroke-dasharray="1.0,3.0" d="m311.03674 312.3517l65.51181 0l0 30.897614l-65.51181 0z" fill-rule="evenodd"/><path fill="#000000" d="m324.05237 335.54865q-0.15625 0 -0.34375 -0.25q-0.1875 -0.25 -0.171875 -0.46875q0.03125 -0.296875 0.171875 -0.859375q0.15625 -0.5625 0.34375 -1.140625q0.1875 -0.578125 0.328125 -0.90625q0.078125 -0.296875 0.140625 -0.53125q0.0625 -0.234375 0.09375 -0.3125q0.046875 -0.078125 0.171875 -0.390625q0.125 -0.3125 0.1875 -0.609375q0.046875 -0.15625 0.15625 -0.578125q0.125 -0.421875 0.296875 -0.96875q0.1875 -0.5625 0.359375 -1.09375q0.1875 -0.546875 0.3125 -0.953125q0.125 -0.421875 0.171875 -0.546875q0.140625 -0.234375 0.21875 -0.4375q0.078125 -0.203125 0.09375 -0.28125q0.109375 -0.078125 0.125 -0.1875q0.03125 -0.125 0.03125 -0.203125q0 -0.09375 0.0625 -0.140625q0.0625 -0.0625 0.0625 -0.140625q0.078125 -0.046875 0.09375 -0.171875q0.015625 -0.125 0.109375 -0.21875l0.09375 -0.3125l1.109375 -0.015625q-0.046875 0.21875 -0.125 0.546875q-0.0625 0.328125 -0.34375 0.859375q-0.09375 0.375 -0.21875 0.6875q-0.125 0.296875 -0.109375 0.390625q-0.03125 0.03125 -0.15625 0.375q-0.125 0.328125 -0.28125 0.8125q-0.15625 0.484375 -0.3125 0.96875q-0.15625 0.484375 -0.28125 0.859375q-0.125 0.359375 -0.15625 0.453125q-0.15625 0.296875 -0.34375 0.875q-0.171875 0.578125 -0.546875 1.5625q-0.15625 0.296875 -0.375 0.90625q-0.203125 0.59375 -0.34375 1.078125q-0.203125 0.71875 -0.296875 1.0q-0.078125 0.296875 -0.140625 0.328125q-0.046875 0.03125 -0.1875 0.015625zm0.140625 -11.125q-0.515625 0.015625 -0.765625 -0.046875q-0.25 -0.078125 -0.1875 -0.390625q0.0625 -0.21875 0.25 -0.328125q0.1875 -0.109375 0.546875 -0.171875q0.203125 -0.03125 0.515625 -0.078125q0.328125 -0.0625 0.640625 -0.125q0.609375 -0.078125 1.0 -0.125q0.40625 -0.0625 0.828125 -0.09375q0.4375 -0.046875 1.09375 -0.078125q0.546875 -0.03125 0.921875 -0.0625q0.390625 -0.03125 0.390625 -0.03125q0.046875 0 0.375 0.046875q0.34375 0.03125 0.734375 0.09375q0.390625 0.046875 0.578125 0.125q0.4375 0.09375 0.625 0.265625q0.203125 0.15625 0.28125 0.46875q0.046875 0.234375 -0.015625 0.28125q-0.046875 0.046875 -0.203125 0.125q-0.421875 0.125 -0.625 0.125q-0.203125 0 -0.46875 -0.09375q-0.09375 -0.09375 -0.21875 -0.171875q-0.125 -0.078125 -0.421875 -0.125q-0.28125 -0.046875 -0.890625 -0.078125q-0.515625 0.0625 -0.921875 0.0625q-0.390625 0 -0.390625 0.09375l-1.09375 0.046875l-0.90625 0.09375q-0.1875 0.015625 -0.53125 0.046875q-0.328125 0.03125 -0.65625 0.0625q-0.3125 0.03125 -0.484375 0.0625zm10.794586 10.625q-0.609375 0.1875 -1.171875 0.296875q-0.5625 0.109375 -1.1875 0q-0.625 -0.109375 -1.4375 -0.5q-0.015625 -0.203125 -0.15625 -0.375q-0.140625 -0.171875 -0.3125 -0.203125q-0.0625 -0.015625 -0.171875 -0.171875q-0.109375 -0.171875 -0.203125 -0.265625q-0.046875 -0.234375 -0.0625 -0.375q0 -0.15625 0.03125 -0.40625q0.03125 -0.25 0.109375 -0.71875q0.09375 -0.234375 0.265625 -0.734375q0.1875 -0.5 0.421875 -1.09375q0.234375 -0.609375 0.484375 -1.1875q0.671875 -1.6875 1.046875 -2.640625q0.390625 -0.953125 0.53125 -1.40625q0.15625 -0.46875 0.15625 -0.671875q0 -0.203125 -0.078125 -0.421875q-0.125 -0.34375 0 -0.625q0.125 -0.28125 0.484375 -0.40625q0.34375 -0.1875 0.71875 -0.34375q0.390625 -0.171875 0.765625 -0.28125q0.375 -0.109375 0.6875 -0.140625q0.265625 -0.046875 0.640625 0q0.375 0.03125 0.734375 0.125q0.359375 0.09375 0.625 0.21875q0.265625 0.109375 0.3125 0.265625q0 0 0.046875 0.015625q0.0625 0.015625 0.0625 0.015625q0 0 0.078125 0.03125q0.078125 0.015625 0.234375 0.15625q0.203125 0.15625 0.34375 0.5q0.15625 0.34375 0.078125 0.625q0 0.078125 0.046875 0.25q0.046875 0.15625 0.078125 0.359375q0.09375 0.515625 -0.109375 1.125q-0.203125 0.609375 -0.84375 1.3125q-0.21875 0.25 -0.40625 0.5q-0.171875 0.234375 -0.25 0.21875q-0.1875 0.171875 -0.28125 0.375q-0.09375 0.1875 0.0625 0.21875q0 0 0.125 0.1875q0.140625 0.1875 0.359375 0.453125q0.359375 0.546875 0.453125 1.28125q0.109375 0.734375 -0.09375 1.40625q-0.125 0.46875 -0.609375 1.0625q-0.484375 0.578125 -1.171875 1.109375q-0.6875 0.53125 -1.4375 0.859375zm-2.0625 -0.734375q0.65625 0.09375 1.40625 -0.140625q0.75 -0.25 1.421875 -0.765625q0.6875 -0.515625 1.09375 -1.171875q0.515625 -0.65625 0.5 -1.1875q0 -0.53125 -0.3125 -1.015625q-0.28125 -0.421875 -0.640625 -0.515625q-0.34375 -0.109375 -0.75 -0.03125q-0.390625 0.0625 -0.8125 0.203125q-0.359375 0.046875 -0.828125 0.203125q-0.453125 0.140625 -0.84375 0.265625q-0.375 0.125 -0.5 0.125q0 0 -0.109375 0.109375q-0.109375 0.109375 -0.21875 0.234375q-0.109375 0.125 -0.125 0.1875q-0.09375 0.046875 -0.21875 0.296875q-0.109375 0.25 -0.1875 0.5625q-0.078125 0.296875 -0.125 0.546875q-0.03125 0.25 0 0.25q0.09375 0.015625 -0.015625 0.296875q-0.09375 0.28125 -0.125 0.453125q-0.15625 0.453125 0.296875 0.75q0.46875 0.296875 1.09375 0.34375zm0.296875 -5.28125q0.15625 -0.015625 0.5 -0.15625q0.359375 -0.140625 0.65625 -0.21875q0.84375 -0.125 1.5625 -0.59375q0.71875 -0.484375 1.234375 -1.125q0.515625 -0.65625 0.71875 -1.25q0.109375 -0.203125 0.15625 -0.625q0.0625 -0.421875 0.03125 -0.609375l0 -0.140625q-0.140625 -0.359375 -0.65625 -0.5q-0.515625 -0.15625 -1.21875 -0.109375q-0.6875 0.046875 -1.3125 0.28125q-0.265625 0.140625 -0.328125 0.390625q-0.046875 0.25 -0.140625 0.6875q-0.078125 0.453125 -0.265625 0.921875q-0.1875 0.46875 -0.296875 0.84375q-0.015625 0.078125 -0.09375 0.140625q-0.078125 0.046875 -0.078125 0.171875q0 0 -0.125 0.265625q-0.109375 0.265625 -0.203125 0.578125q-0.140625 0.3125 -0.203125 0.5625q-0.0625 0.234375 -0.0625 0.234375q0 0 0.03125 0.171875q0.03125 0.171875 0.09375 0.078125zm6.192627 6.296875q-0.328125 -0.1875 -0.359375 -0.40625q-0.03125 -0.21875 0.25 -0.78125q0.28125 -0.5625 0.875 -1.734375q0.453125 -0.84375 0.6875 -1.3125q0.234375 -0.484375 0.3125 -0.6875q0.09375 -0.203125 0.09375 -0.265625q-0.046875 -0.15625 0.03125 -0.25q0.078125 -0.109375 0.25 -0.1875q0.078125 -0.09375 0.296875 -0.328125q0.21875 -0.25 0.40625 -0.59375q0.171875 -0.390625 0.390625 -0.796875q0.21875 -0.40625 0.59375 -1.03125q0.375 -0.625 0.96875 -1.640625q0.375 -0.65625 0.8125 -1.328125q0.453125 -0.6875 0.96875 -1.359375q0.203125 -0.25 0.359375 -0.40625q0.171875 -0.171875 0.34375 -0.15625q0.21875 0 0.5 0.15625q0.296875 0.15625 0.53125 0.40625q0.25 0.234375 0.375 0.515625q0.09375 0.140625 0.0625 0.625q-0.015625 0.484375 -0.078125 1.1875q-0.046875 0.6875 -0.125 1.46875q-0.046875 0.765625 -0.171875 1.8125q-0.109375 1.03125 -0.21875 2.171875q-0.09375 1.140625 -0.15625 2.203125q-0.046875 1.046875 0.015625 1.828125q0.015625 0.171875 -0.015625 0.3125q-0.015625 0.15625 -0.015625 0.25q-0.109375 0.109375 -0.359375 0.09375q-0.25 0 -0.484375 -0.109375q-0.234375 -0.109375 -0.265625 -0.28125q-0.0625 -0.0625 -0.078125 -0.15625q0 -0.109375 0.015625 -0.4375q0.015625 -0.34375 0.046875 -1.0625l0.09375 -3.03125l-0.25 0.015625q-0.171875 0 -0.640625 0.046875q-0.453125 0.03125 -1.0 0.09375q-0.546875 0.0625 -1.0 0.140625q-0.453125 0.0625 -0.625 0.109375q-0.171875 0 -0.40625 0.234375q-0.234375 0.21875 -0.4375 0.578125q-0.0625 0.25 -0.265625 0.546875q-0.1875 0.28125 -0.1875 0.375q-0.140625 0.09375 -0.234375 0.234375q-0.078125 0.125 -0.078125 0.125q0 0.109375 -0.171875 0.546875q-0.171875 0.4375 -0.4375 0.96875q-0.265625 0.53125 -0.515625 0.9375l-0.40625 0.59375l-0.296875 -0.234375zm3.875 -6.0q0 0 0.1875 -0.03125q0.203125 -0.046875 0.46875 -0.09375q0.265625 -0.046875 0.5 -0.046875q0.78125 -0.1875 1.125 -0.25q0.359375 -0.0625 0.5 -0.0625q0.140625 0 0.25 0.046875q0.078125 0.09375 0.140625 0.125q0.0625 0.015625 0.0625 0.015625q0.015625 -0.046875 0.046875 -0.4375q0.046875 -0.390625 0.109375 -0.96875q0.078125 -0.578125 0.140625 -1.203125q0.0625 -0.625 0.09375 -1.15625q0.046875 -0.53125 0.0625 -0.8125q0.015625 -0.34375 0.03125 -0.625q0.03125 -0.296875 0.03125 -0.296875q-0.125 0 -0.484375 0.40625q-0.359375 0.40625 -0.8125 1.078125q-0.453125 0.671875 -0.84375 1.4375q-0.1875 0.359375 -0.359375 0.640625q-0.15625 0.28125 -0.25 0.28125q-0.03125 0.03125 -0.21875 0.328125q-0.171875 0.28125 -0.375 0.65625q-0.203125 0.359375 -0.34375 0.65625q-0.125 0.28125 -0.0625 0.3125z" fill-rule="nonzero"/><path fill="#000000" fill-opacity="0.0" d="m527.19946 270.30447l131.08661 0l0 42.015747l-131.08661 0z" fill-rule="evenodd"/><path fill="#ff00ff" d="m540.43384 284.77133q-0.5 0.03125 -1.046875 0.765625q-0.53125 0.734375 -0.53125 2.71875q0 0.59375 0.125 0.859375q0.140625 0.265625 0.140625 0.78125q-1.53125 0 -2.140625 -0.515625q-0.609375 -0.53125 -0.609375 -1.671875q0 -1.4375 0.703125 -2.625q0.703125 -1.1875 2.21875 -1.890625q1.53125 -0.71875 3.8125 -0.71875q0.484375 0 1.234375 0.09375q1.3125 0.140625 1.859375 0.140625q0.921875 0 2.3125 -0.453125q-0.328125 0.875 -0.484375 1.484375q-0.15625 0.609375 -0.625 1.09375q-0.453125 0.46875 -1.25 0.640625q-1.1875 0 -2.375 -0.28125l-0.59375 2.890625l2.71875 0l-0.46875 2.125l-2.71875 0l-1.515625 7.015625l-3.453125 0l2.6875 -12.453125zm5.6726074 2.375l3.4375 0l-0.25 0.765625q-0.03125 -0.109375 0.546875 -0.4375q0.578125 -0.328125 1.265625 -0.328125q0.765625 0 1.203125 0.53125q0.453125 0.53125 0.453125 1.25q0 0.671875 -0.453125 1.203125q-0.453125 0.53125 -1.265625 0.53125q-0.59375 0 -0.828125 -0.3125q-0.21875 -0.3125 -0.296875 -0.75q-0.046875 -0.203125 0 -0.25q0.046875 -0.046875 0.046875 0.078125q-0.28125 0 -0.5 0.125q-0.203125 0.109375 -0.515625 0.40625l-1.53125 7.265625l-3.453125 0l2.140625 -10.078125zm8.7178955 10.1875q-1.546875 0 -2.421875 -0.828125q-0.875 -0.828125 -0.875 -2.515625q0 -1.34375 0.53125 -2.953125q0.53125 -1.625 1.75 -2.84375q1.234375 -1.21875 3.140625 -1.21875q2.421875 0 2.421875 2.171875q0 1.15625 -0.65625 2.125q-0.640625 0.953125 -1.71875 1.53125q-1.0625 0.578125 -1.9375 0.625q-0.015625 0.234375 -0.015625 0.40625q0 0.75 0.203125 0.96875q0.21875 0.21875 0.765625 0.21875q0.90625 0 1.546875 -0.421875q0.65625 -0.421875 1.578125 -1.46875l1.46875 0q-2.5 4.203125 -5.78125 4.203125zm0.484375 -5.546875q0.109375 -0.015625 0.65625 -0.390625q0.546875 -0.390625 0.875 -1.0q0.34375 -0.625 0.34375 -1.296875q0 -0.375 -0.09375 -0.375q-0.453125 0 -1.03125 1.046875q-0.5625 1.046875 -0.75 2.015625zm6.6796265 5.546875q-1.546875 0 -2.421875 -0.828125q-0.875 -0.828125 -0.875 -2.515625q0 -1.34375 0.53125 -2.953125q0.53125 -1.625 1.75 -2.84375q1.234375 -1.21875 3.140625 -1.21875q2.421875 0 2.421875 2.171875q0 1.15625 -0.65625 2.125q-0.640625 0.953125 -1.71875 1.53125q-1.0625 0.578125 -1.9375 0.625q-0.015625 0.234375 -0.015625 0.40625q0 0.75 0.203125 0.96875q0.21875 0.21875 0.765625 0.21875q0.90625 0 1.546875 -0.421875q0.65625 -0.421875 1.578125 -1.46875l1.46875 0q-2.5 4.203125 -5.78125 4.203125zm0.484375 -5.546875q0.109375 -0.015625 0.65625 -0.390625q0.546875 -0.390625 0.875 -1.0q0.34375 -0.625 0.34375 -1.296875q0 -0.375 -0.09375 -0.375q-0.453125 0 -1.03125 1.046875q-0.5625 1.046875 -0.75 2.015625zm5.8515015 5.546875q-1.046875 0 -1.71875 -0.65625q-0.65625 -0.671875 -0.65625 -1.953125q0 -0.5 0.171875 -1.296875l2.046875 -9.609375l3.546875 -0.46875l-2.265625 10.609375q-0.0625 0.234375 -0.0625 0.5q0 0.203125 0.0625 0.265625q0.0625 0.046875 0.328125 0.046875q0.390625 0 0.765625 -0.359375q0.390625 -0.375 0.640625 -1.28125l1.59375 0q-0.90625 2.625 -2.09375 3.421875q-1.1875 0.78125 -2.359375 0.78125zm5.371826 0q-1.21875 0 -2.046875 -0.828125q-0.8125 -0.84375 -0.8125 -2.546875q0 -1.4375 0.578125 -3.03125q0.578125 -1.59375 1.75 -2.734375q1.1875 -1.140625 2.84375 -1.140625q0.875 0 1.375 0.34375q0.515625 0.34375 0.515625 0.984375l-0.375 0.125l-0.109375 -1.359375l3.46875 0l-1.453125 6.8125q-0.0625 0.234375 -0.0625 0.5q0 0.4375 0.390625 0.4375q0.34375 0 0.640625 -0.390625q0.3125 -0.390625 0.59375 -1.375l1.59375 0q-0.90625 2.625 -2.015625 3.421875q-1.109375 0.78125 -2.265625 0.78125q-0.921875 0 -1.515625 -0.53125q-0.578125 -0.53125 -0.53125 -0.6875q-0.046875 0.15625 -0.78125 0.6875q-0.734375 0.53125 -1.78125 0.53125zm1.21875 -2.5625q0.3125 0 0.671875 -0.34375q0.359375 -0.34375 0.515625 -1.0l0.875 -4.1875q0 -0.0625 -0.09375 -0.171875q-0.09375 -0.109375 -0.296875 -0.109375q-0.53125 0 -1.0625 0.765625q-0.53125 0.75 -0.859375 1.921875q-0.3125 1.171875 -0.3125 2.046875q0 0.78125 0.15625 0.9375q0.171875 0.140625 0.40625 0.140625zm13.094421 2.5625q-1.3125 0 -1.953125 -0.71875q-0.625 -0.71875 -0.625 -1.765625q0 -0.421875 0.09375 -0.9375q0.09375 -0.515625 0.203125 -1.0q0.109375 -0.484375 0.15625 -0.609375q0.140625 -0.625 0.265625 -1.234375q0.125 -0.609375 0.125 -0.96875q0 -0.578125 -0.296875 -0.578125q-0.296875 0 -0.59375 0.375q-0.296875 0.375 -0.5 1.0625l-1.328125 6.265625l-3.453125 0l2.140625 -10.078125l3.453125 0l-0.21875 0.4375q0.3125 -0.515625 1.734375 -0.515625q1.109375 0 1.765625 0.640625q0.671875 0.625 0.671875 1.84375q0 0.578125 -0.140625 1.265625q-0.125 0.6875 -0.375 1.640625q-0.15625 0.578125 -0.265625 1.109375q-0.109375 0.53125 -0.109375 0.796875q0 0.25 0.0625 0.328125q0.0625 0.078125 0.3125 0.078125q0.375 0 0.625 -0.3125q0.265625 -0.3125 0.6875 -1.328125l1.546875 0q-0.890625 2.671875 -1.890625 3.4375q-1.0 0.765625 -2.09375 0.765625zm5.3588867 0q-1.546875 0 -2.421875 -0.828125q-0.875 -0.828125 -0.875 -2.515625q0 -1.34375 0.53125 -2.953125q0.546875 -1.625 1.765625 -2.84375q1.21875 -1.21875 3.109375 -1.21875q1.265625 0 1.84375 0.59375q0.59375 0.59375 0.59375 1.5q0 0.78125 -0.375 1.265625q-0.375 0.46875 -0.984375 0.46875q-0.421875 0 -1.109375 -0.4375q0.296875 -0.828125 0.296875 -1.265625q0 -0.234375 -0.046875 -0.296875q-0.03125 -0.078125 -0.09375 -0.078125q-0.34375 0 -0.84375 0.8125q-0.484375 0.796875 -0.828125 2.046875q-0.34375 1.25 -0.34375 2.25q0 0.75 0.203125 0.96875q0.21875 0.21875 0.765625 0.21875q0.90625 0 1.546875 -0.421875q0.65625 -0.421875 1.578125 -1.46875l1.46875 0q-2.5 4.203125 -5.78125 4.203125zm7.1640015 0q-1.546875 0 -2.421875 -0.828125q-0.875 -0.828125 -0.875 -2.515625q0 -1.34375 0.53125 -2.953125q0.53125 -1.625 1.75 -2.84375q1.234375 -1.21875 3.140625 -1.21875q2.421875 0 2.421875 2.171875q0 1.15625 -0.65625 2.125q-0.640625 0.953125 -1.71875 1.53125q-1.0625 0.578125 -1.9375 0.625q-0.015625 0.234375 -0.015625 0.40625q0 0.75 0.203125 0.96875q0.21875 0.21875 0.765625 0.21875q0.90625 0 1.546875 -0.421875q0.65625 -0.421875 1.578125 -1.46875l1.46875 0q-2.5 4.203125 -5.78125 4.203125zm0.484375 -5.546875q0.109375 -0.015625 0.65625 -0.390625q0.546875 -0.390625 0.875 -1.0q0.34375 -0.625 0.34375 -1.296875q0 -0.375 -0.09375 -0.375q-0.453125 0 -1.03125 1.046875q-0.5625 1.046875 -0.75 2.015625zm4.9765015 -4.640625l3.4375 0l-0.25 0.765625q-0.03125 -0.109375 0.546875 -0.4375q0.578125 -0.328125 1.265625 -0.328125q0.765625 0 1.203125 0.53125q0.453125 0.53125 0.453125 1.25q0 0.671875 -0.453125 1.203125q-0.453125 0.53125 -1.265625 0.53125q-0.59375 0 -0.828125 -0.3125q-0.21875 -0.3125 -0.296875 -0.75q-0.046875 -0.203125 0 -0.25q0.046875 -0.046875 0.046875 0.078125q-0.28125 0 -0.5 0.125q-0.203125 0.109375 -0.515625 0.40625l-1.53125 7.265625l-3.453125 0l2.140625 -10.078125z" fill-rule="nonzero"/><path fill="#b4a7d6" d="m429.15222 312.3517l150.2677 0l0 30.897614l-150.2677 0z" fill-rule="evenodd"/><path stroke="#000000" strokeWidth="1.0" strokeLinejoin="round" strokeLinecap="butt" d="m429.15222 312.3517l150.2677 0l0 30.897614l-150.2677 0z" fill-rule="evenodd"/><path fill="#000000" d="m446.60535 334.81427q-2.21875 0 -3.859375 -0.8125q-1.640625 -0.8125 -2.53125 -2.296875q-0.875 -1.5 -0.875 -3.484375q0 -2.734375 1.03125 -4.859375q1.046875 -2.125 2.8125 -3.296875q1.78125 -1.171875 3.9375 -1.171875q2.015625 0 3.0625 1.046875q1.046875 1.03125 1.046875 2.734375q0 1.140625 -0.40625 1.828125q-0.390625 0.6875 -1.140625 0.6875q-0.53125 0 -0.828125 -0.234375q-0.296875 -0.25 -0.296875 -0.71875q0 -0.171875 0.078125 -0.609375q0.109375 -0.5625 0.109375 -0.90625q0 -1.6875 -1.8125 -1.6875q-1.21875 0 -2.34375 0.796875q-1.125 0.796875 -1.8125 2.359375q-0.6875 1.5625 -0.6875 3.703125q0 2.234375 1.25 3.46875q1.25 1.21875 3.6875 1.21875q1.21875 0 2.453125 -0.3125q1.25 -0.3125 2.75 -0.9375q0.28125 -0.109375 0.46875 -0.109375q0.296875 0 0.453125 0.21875q0.15625 0.21875 0.15625 0.578125q0 1.140625 -1.234375 1.671875q-1.328125 0.578125 -2.765625 0.859375q-1.421875 0.265625 -2.703125 0.265625zm6.5638123 0q-0.703125 0 -1.0 -0.75q-0.28125 -0.75 -0.28125 -2.390625q0 -2.421875 0.6875 -4.609375q0.171875 -0.53125 0.546875 -0.78125q0.390625 -0.25 1.078125 -0.25q0.375 0 0.515625 0.09375q0.15625 0.09375 0.15625 0.34375q0 0.296875 -0.28125 1.34375q-0.1875 0.75 -0.296875 1.3125q-0.109375 0.5625 -0.1875 1.375q0.609375 -1.609375 1.375 -2.609375q0.765625 -1.0 1.5 -1.421875q0.734375 -0.4375 1.359375 -0.4375q1.203125 0 1.203125 1.203125q0 0.25 -0.15625 1.171875q-0.15625 0.75 -0.15625 0.9375q0 0.65625 0.46875 0.65625q0.515625 0 1.34375 -0.828125q0.234375 -0.234375 0.5 -0.234375q0.25 0 0.390625 0.21875q0.140625 0.203125 0.140625 0.5625q0 0.6875 -0.375 1.078125q-0.53125 0.546875 -1.234375 0.9375q-0.6875 0.375 -1.46875 0.375q-1.0 0 -1.515625 -0.5q-0.5 -0.515625 -0.5 -1.375q0 -0.265625 0.046875 -0.546875q0.046875 -0.375 0.046875 -0.515625q0 -0.296875 -0.21875 -0.296875q-0.265625 0 -0.734375 0.625q-0.453125 0.625 -0.90625 1.65625q-0.4375 1.03125 -0.71875 2.15625q-0.203125 0.890625 -0.484375 1.203125q-0.265625 0.296875 -0.84375 0.296875zm15.488617 -4.25q0.234375 0 0.375 0.21875q0.140625 0.21875 0.140625 0.609375q0 0.75 -0.34375 1.15625q-0.703125 0.84375 -1.96875 1.5625q-1.25 0.703125 -2.6875 0.703125q-1.953125 0 -3.046875 -1.0625q-1.078125 -1.0625 -1.078125 -2.90625q0 -1.296875 0.546875 -2.40625q0.546875 -1.109375 1.5 -1.75q0.96875 -0.65625 2.171875 -0.65625q1.078125 0 1.734375 0.640625q0.65625 0.640625 0.65625 1.734375q0 1.296875 -0.921875 2.21875q-0.921875 0.921875 -3.125 1.46875q0.46875 0.859375 1.765625 0.859375q0.84375 0 1.90625 -0.59375q1.078125 -0.59375 1.875 -1.546875q0.21875 -0.25 0.5 -0.25zm-4.703125 -2.703125q-0.6875 0 -1.171875 0.796875q-0.46875 0.796875 -0.46875 1.9375l0 0.046875q1.09375 -0.265625 1.734375 -0.78125q0.640625 -0.53125 0.640625 -1.21875q0 -0.359375 -0.203125 -0.5625q-0.203125 -0.21875 -0.53125 -0.21875zm5.910431 6.953125q-1.15625 0 -1.84375 -0.828125q-0.6875 -0.84375 -0.6875 -2.21875q0 -1.484375 0.6875 -2.8125q0.6875 -1.34375 1.828125 -2.15625q1.15625 -0.8125 2.4375 -0.8125q0.421875 0 0.5625 0.171875q0.140625 0.15625 0.234375 0.5625q0.390625 -0.078125 0.8125 -0.078125q0.921875 0 0.921875 0.65625q0 0.390625 -0.28125 1.859375q-0.4375 2.140625 -0.4375 2.984375q0 0.28125 0.140625 0.453125q0.140625 0.171875 0.359375 0.171875q0.359375 0 0.859375 -0.453125q0.515625 -0.46875 1.375 -1.5q0.21875 -0.25 0.5 -0.25q0.234375 0 0.375 0.21875q0.140625 0.21875 0.140625 0.609375q0 0.75 -0.34375 1.15625q-0.765625 0.953125 -1.625 1.609375q-0.859375 0.65625 -1.671875 0.65625q-0.609375 0 -1.125 -0.421875q-0.515625 -0.421875 -0.765625 -1.140625q-0.96875 1.5625 -2.453125 1.5625zm0.671875 -1.890625q0.40625 0 0.78125 -0.484375q0.375 -0.484375 0.546875 -1.28125l0.6875 -3.4375q-0.78125 0.015625 -1.453125 0.59375q-0.65625 0.5625 -1.046875 1.5q-0.390625 0.9375 -0.390625 1.984375q0 0.578125 0.234375 0.859375q0.234375 0.265625 0.640625 0.265625zm14.127808 -2.359375q0.234375 0 0.375 0.21875q0.140625 0.21875 0.140625 0.609375q0 0.75 -0.34375 1.15625q-0.8125 1.0 -1.765625 1.640625q-0.953125 0.625 -2.171875 0.625q-3.8125 0 -3.8125 -5.359375q0 -0.8125 0.0625 -1.65625l-0.734375 0q-0.5625 0 -0.765625 -0.203125q-0.1875 -0.203125 -0.1875 -0.65625q0 -1.046875 0.84375 -1.046875l1.0625 0q0.3125 -2.046875 0.96875 -3.734375q0.65625 -1.703125 1.578125 -2.703125q0.921875 -1.015625 1.984375 -1.015625q0.78125 0 1.234375 0.6875q0.453125 0.6875 0.453125 1.734375q0 2.890625 -2.4375 5.03125l2.09375 0q0.296875 0 0.421875 0.140625q0.140625 0.125 0.140625 0.484375q0 1.28125 -2.109375 1.28125l-2.28125 0q-0.03125 0.9375 -0.03125 1.453125q0 1.9375 0.453125 2.734375q0.453125 0.78125 1.453125 0.78125q0.796875 0 1.40625 -0.484375q0.625 -0.484375 1.46875 -1.46875q0.21875 -0.25 0.5 -0.25zm-3.265625 -10.34375q-0.28125 0 -0.625 0.703125q-0.34375 0.703125 -0.65625 1.953125q-0.3125 1.234375 -0.515625 2.734375q1.109375 -0.953125 1.65625 -2.125q0.546875 -1.1875 0.546875 -2.15625q0 -1.109375 -0.40625 -1.109375zm8.956909 10.90625q0.234375 0 0.375 0.21875q0.140625 0.21875 0.140625 0.609375q0 0.671875 -0.3125 1.15625q-0.53125 0.8125 -1.375 1.265625q-0.84375 0.4375 -2.015625 0.4375q-1.796875 0 -2.796875 -1.0625q-0.984375 -1.078125 -0.984375 -2.90625q0 -1.296875 0.546875 -2.40625q0.546875 -1.109375 1.5 -1.75q0.96875 -0.65625 2.171875 -0.65625q1.078125 0 1.734375 0.640625q0.65625 0.640625 0.65625 1.734375q0 1.296875 -0.921875 2.21875q-0.921875 0.921875 -3.140625 1.46875q0.4375 0.859375 1.515625 0.859375q0.75 0 1.25 -0.359375q0.5 -0.359375 1.15625 -1.203125q0.21875 -0.265625 0.5 -0.265625zm-3.0625 -3.265625q-0.6875 0 -1.171875 0.796875q-0.46875 0.796875 -0.46875 1.9375l0 0.046875q1.09375 -0.265625 1.734375 -0.78125q0.640625 -0.53125 0.640625 -1.21875q0 -0.359375 -0.203125 -0.5625q-0.203125 -0.21875 -0.53125 -0.21875zm23.455383 -4.265625q0 1.59375 -0.828125 2.921875q-0.8125 1.3125 -2.390625 2.15625q-1.5625 0.84375 -3.734375 0.984375l-0.796875 4.5q-0.46875 2.59375 -2.53125 2.59375q-1.140625 0 -2.109375 -0.671875q-0.953125 -0.671875 -1.53125 -2.046875q-0.578125 -1.390625 -0.578125 -3.390625q0 -3.796875 1.21875 -6.4375q1.21875 -2.640625 3.28125 -3.953125q2.0625 -1.3125 4.546875 -1.3125q1.75 0 2.96875 0.625q1.234375 0.609375 1.859375 1.671875q0.625 1.046875 0.625 2.359375zm-6.609375 4.140625q3.828125 -0.484375 3.828125 -3.96875q0 -1.234375 -0.8125 -2.0q-0.8125 -0.78125 -2.515625 -0.78125q-1.921875 0 -3.34375 1.21875q-1.421875 1.203125 -2.203125 3.359375q-0.78125 2.15625 -0.78125 4.921875q0 1.15625 0.234375 2.0625q0.234375 0.890625 0.59375 1.390625q0.375 0.484375 0.703125 0.484375q0.46875 0 0.71875 -1.28125l0.609375 -3.53125q-0.71875 -0.109375 -0.625 -0.09375q-0.5625 -0.09375 -0.734375 -0.34375q-0.171875 -0.25 -0.171875 -0.640625q0 -0.421875 0.234375 -0.65625q0.234375 -0.25 0.640625 -0.25q0.1875 0 0.28125 0.015625q0.453125 0.078125 0.6875 0.09375q0.25 -1.453125 0.703125 -3.890625q0.109375 -0.640625 0.5 -0.90625q0.40625 -0.265625 0.953125 -0.265625q0.609375 0 0.875 0.234375q0.28125 0.234375 0.28125 0.734375q0 0.296875 -0.046875 0.484375l-0.609375 3.609375zm7.367035 7.078125q-0.703125 0 -1.0 -0.75q-0.28125 -0.75 -0.28125 -2.390625q0 -2.421875 0.6875 -4.609375q0.171875 -0.53125 0.546875 -0.78125q0.390625 -0.25 1.078125 -0.25q0.375 0 0.515625 0.09375q0.15625 0.09375 0.15625 0.34375q0 0.296875 -0.28125 1.34375q-0.1875 0.75 -0.296875 1.3125q-0.109375 0.5625 -0.1875 1.375q0.609375 -1.609375 1.375 -2.609375q0.765625 -1.0 1.5 -1.421875q0.734375 -0.4375 1.359375 -0.4375q1.203125 0 1.203125 1.203125q0 0.25 -0.15625 1.171875q-0.15625 0.75 -0.15625 0.9375q0 0.65625 0.46875 0.65625q0.515625 0 1.34375 -0.828125q0.234375 -0.234375 0.5 -0.234375q0.25 0 0.390625 0.21875q0.140625 0.203125 0.140625 0.5625q0 0.6875 -0.375 1.078125q-0.53125 0.546875 -1.234375 0.9375q-0.6875 0.375 -1.46875 0.375q-1.0 0 -1.515625 -0.5q-0.5 -0.515625 -0.5 -1.375q0 -0.265625 0.046875 -0.546875q0.046875 -0.375 0.046875 -0.515625q0 -0.296875 -0.21875 -0.296875q-0.265625 0 -0.734375 0.625q-0.453125 0.625 -0.90625 1.65625q-0.4375 1.03125 -0.71875 2.15625q-0.203125 0.890625 -0.484375 1.203125q-0.265625 0.296875 -0.84375 0.296875zm16.676086 -5.828125q0.25 0 0.375 0.25q0.125 0.234375 0.125 0.609375q0 0.90625 -0.53125 1.0625q-1.125 0.390625 -2.46875 0.453125q-0.34375 1.5625 -1.390625 2.515625q-1.046875 0.9375 -2.375 0.9375q-1.125 0 -1.921875 -0.53125q-0.78125 -0.546875 -1.203125 -1.4375q-0.40625 -0.90625 -0.40625 -1.953125q0 -1.421875 0.546875 -2.53125q0.546875 -1.109375 1.484375 -1.734375q0.953125 -0.625 2.109375 -0.625q1.421875 0 2.28125 0.984375q0.875 0.984375 1.03125 2.421875q0.875 -0.0625 2.09375 -0.375q0.140625 -0.046875 0.25 -0.046875zm-6.109375 3.84375q0.59375 0 1.03125 -0.484375q0.4375 -0.484375 0.578125 -1.390625q-0.578125 -0.390625 -0.890625 -1.015625q-0.296875 -0.640625 -0.296875 -1.359375q0 -0.296875 0.0625 -0.59375l-0.09375 0q-0.75 0 -1.25 0.71875q-0.484375 0.71875 -0.484375 2.015625q0 1.03125 0.390625 1.578125q0.40625 0.53125 0.953125 0.53125zm17.804626 -2.265625q0.25 0 0.390625 0.21875q0.140625 0.21875 0.140625 0.609375q0 0.75 -0.359375 1.15625q-0.765625 0.9375 -1.6875 1.609375q-0.921875 0.65625 -1.859375 0.65625q-1.203125 0 -1.765625 -0.859375q-0.546875 -0.859375 -0.546875 -2.28125q0 -0.71875 0.15625 -1.78125q0.171875 -1.0625 0.421875 -2.09375q-1.859375 0 -4.421875 0.171875q-0.40625 2.609375 -0.40625 4.859375q0 1.734375 0.1875 3.625q0.203125 1.90625 0.59375 1.90625q0.1875 0 0.390625 -0.65625q0.203125 -0.65625 0.328125 -1.796875q0.140625 -1.125 0.140625 -2.515625q0 -1.5 -0.171875 -3.265625q-0.03125 -0.515625 0.171875 -0.765625q0.21875 -0.25 0.65625 -0.25q0.390625 0 0.578125 0.203125q0.1875 0.203125 0.21875 0.6875q0.09375 1.359375 0.09375 3.25q0 3.03125 -0.734375 5.1875q-0.734375 2.171875 -2.28125 2.171875q-1.328125 0 -1.90625 -1.90625q-0.578125 -1.90625 -0.578125 -5.734375q0 -2.265625 0.359375 -4.828125q-0.140625 0.015625 -0.34375 0.015625q-0.578125 0 -0.78125 -0.203125q-0.1875 -0.21875 -0.1875 -0.640625q0 -0.46875 0.25 -0.75q0.25 -0.28125 0.96875 -0.328125q0.125 -0.015625 0.40625 -0.015625q0.5 -2.53125 1.28125 -4.578125q0.78125 -2.046875 1.78125 -3.25q1.015625 -1.203125 2.140625 -1.203125q0.875 0 1.34375 0.6875q0.484375 0.671875 0.484375 1.734375q0 3.75 -3.015625 6.375q2.265625 -0.09375 3.671875 -0.09375q0.515625 0 0.84375 0.203125q0.34375 0.1875 0.34375 0.75q0 0.375 -0.125 1.140625q-0.109375 0.765625 -0.265625 1.53125q-0.328125 1.578125 -0.328125 2.09375q0 0.546875 0.140625 0.859375q0.15625 0.296875 0.5 0.296875q0.328125 0 0.8125 -0.4375q0.5 -0.4375 1.46875 -1.515625q0.21875 -0.25 0.5 -0.25zm-6.734375 -11.59375q-0.4375 0 -1.140625 1.953125q-0.6875 1.9375 -1.234375 4.6875q0.921875 -0.640625 1.546875 -1.609375q0.625 -0.984375 0.9375 -2.015625q0.3125 -1.03125 0.3125 -1.90625q0 -1.109375 -0.421875 -1.109375zm3.625 5.828125q-0.78125 0 -1.171875 -0.359375q-0.390625 -0.375 -0.390625 -1.03125q0 -0.640625 0.5 -1.078125q0.515625 -0.4375 1.28125 -0.4375q0.703125 0 1.125 0.34375q0.421875 0.328125 0.421875 0.9375q0 0.75 -0.484375 1.1875q-0.484375 0.4375 -1.28125 0.4375zm9.200012 5.765625q0.234375 0 0.375 0.21875q0.140625 0.21875 0.140625 0.609375q0 0.75 -0.34375 1.15625q-0.8125 1.0 -1.75 1.640625q-0.9375 0.625 -2.140625 0.625q-1.640625 0 -2.4375 -1.484375q-0.78125 -1.5 -0.78125 -3.875q0 -2.265625 0.578125 -5.171875q0.59375 -2.921875 1.734375 -5.0q1.15625 -2.09375 2.734375 -2.09375q0.90625 0 1.40625 0.828125q0.515625 0.828125 0.515625 2.375q0 2.21875 -1.234375 5.15625q-1.21875 2.921875 -3.328125 5.796875q0.125 0.765625 0.421875 1.09375q0.296875 0.328125 0.78125 0.328125q0.765625 0 1.34375 -0.4375q0.578125 -0.4375 1.484375 -1.515625q0.21875 -0.25 0.5 -0.25zm-2.296875 -11.53125q-0.421875 0 -0.96875 1.546875q-0.546875 1.546875 -0.953125 3.84375q-0.40625 2.296875 -0.453125 4.40625q1.328125 -2.1875 2.109375 -4.375q0.78125 -2.203125 0.78125 -4.0q0 -1.421875 -0.515625 -1.421875zm7.988159 12.09375q0.234375 0 0.375 0.21875q0.140625 0.21875 0.140625 0.609375q0 0.671875 -0.3125 1.15625q-0.53125 0.8125 -1.375 1.265625q-0.84375 0.4375 -2.015625 0.4375q-1.796875 0 -2.796875 -1.0625q-0.984375 -1.078125 -0.984375 -2.90625q0 -1.296875 0.546875 -2.40625q0.546875 -1.109375 1.5 -1.75q0.96875 -0.65625 2.171875 -0.65625q1.078125 0 1.734375 0.640625q0.65625 0.640625 0.65625 1.734375q0 1.296875 -0.921875 2.21875q-0.921875 0.921875 -3.140625 1.46875q0.4375 0.859375 1.515625 0.859375q0.75 0 1.25 -0.359375q0.5 -0.359375 1.15625 -1.203125q0.21875 -0.265625 0.5 -0.265625zm-3.0625 -3.265625q-0.6875 0 -1.171875 0.796875q-0.46875 0.796875 -0.46875 1.9375l0 0.046875q1.09375 -0.265625 1.734375 -0.78125q0.640625 -0.53125 0.640625 -1.21875q0 -0.359375 -0.203125 -0.5625q-0.203125 -0.21875 -0.53125 -0.21875z" fill-rule="nonzero"/><path fill="#000000" fill-opacity="0.0" d="m579.4199 327.80054l27.716553 0.28344727" fill-rule="evenodd"/><path stroke="#000000" strokeWidth="1.0" strokeLinejoin="round" strokeLinecap="butt" stroke-dasharray="8.0,3.0" d="m579.4199 327.80054l21.716919 0.22210693" fill-rule="evenodd"/><path fill="#000000" stroke="#000000" strokeWidth="1.0" strokeLinecap="butt" d="m601.11993 329.6743l4.5547485 -1.6052551l-4.520996 -1.6980591z" fill-rule="evenodd"/><path fill="#ead1dc" d="m607.1365 312.61942l131.08661 0l0 30.897644l-131.08661 0z" fill-rule="evenodd"/><path stroke="#000000" strokeWidth="1.0" strokeLinejoin="round" strokeLinecap="butt" stroke-dasharray="8.0,3.0" d="m607.1365 312.61942l131.08661 0l0 30.897644l-131.08661 0z" fill-rule="evenodd"/><path fill="#000000" d="m618.2302 335.94138q-0.234375 0 -0.375 -0.25q-0.109375 -0.109375 -0.1875 -0.328125q-0.0625 -0.203125 0.046875 -0.71875q0.125 -0.53125 0.46875 -1.59375q0.1875 -0.71875 0.296875 -1.03125q0.125 -0.328125 0.125 -0.484375q0 -0.203125 0.046875 -0.34375q0.046875 -0.140625 0.046875 -0.265625q0.109375 0 0.21875 -0.203125q0.109375 -0.21875 0.1875 -0.5625q0.078125 -0.328125 0.140625 -0.515625q0.0625 -0.203125 0.0625 -0.265625q0.09375 -0.15625 0.1875 -0.46875q0.109375 -0.328125 0.328125 -0.765625q0.15625 -0.5625 0.34375 -1.171875q0.1875 -0.609375 0.375 -1.140625q0.203125 -0.53125 0.328125 -0.828125q0.203125 -0.578125 0.3125 -0.8125q0.125 -0.234375 0.015625 -0.296875q-0.140625 -0.09375 -0.09375 -0.375q0.0625 -0.28125 0.40625 -0.5625q0.203125 -0.25 0.40625 -0.34375q0.203125 -0.109375 0.484375 -0.109375q0.296875 0 0.75 0.046875q0.328125 0.015625 0.703125 0.015625q0.390625 0 0.484375 0q0.171875 0.078125 0.40625 0.171875q0.25 0.09375 0.4375 0.171875q0.203125 0.0625 0.203125 0.125q0 0.109375 0.078125 0.140625q0.09375 0.015625 0.1875 0.046875q0.125 0 0.375 0.203125q0.265625 0.203125 0.515625 0.515625q0.265625 0.296875 0.390625 0.625q0.15625 0.3125 0.25 0.59375q0.09375 0.28125 0 0.796875q-0.015625 0.28125 -0.09375 0.5625q-0.0625 0.28125 -0.125 0.375q-0.125 0.078125 -0.21875 0.1875q-0.09375 0.109375 -0.09375 0.203125q0 0.078125 -0.140625 0.3125q-0.125 0.234375 -0.34375 0.546875q-0.203125 0.296875 -0.453125 0.609375q-0.25 0.296875 -0.46875 0.5q-0.25 0.3125 -0.578125 0.578125q-0.328125 0.25 -0.578125 0.421875q-0.484375 0.21875 -1.09375 0.4375q-0.59375 0.21875 -1.140625 0.359375q-0.546875 0.125 -0.90625 0.109375q-0.546875 0.078125 -0.703125 0.140625q-0.15625 0.0625 -0.234375 0.328125q-0.09375 0.25 -0.171875 0.515625q-0.078125 0.25 -0.078125 0.34375q-0.046875 0.078125 -0.1875 0.4375q-0.140625 0.359375 -0.296875 0.84375q-0.15625 0.484375 -0.296875 0.96875q-0.140625 0.46875 -0.21875 0.796875q-0.0625 0.25 -0.21875 0.328125q-0.15625 0.078125 -0.3125 0.078125zm2.421875 -5.9375q0.078125 0.078125 0.53125 0.03125q0.46875 -0.0625 1.046875 -0.296875q0.375 -0.125 0.75 -0.3125q0.390625 -0.1875 0.75 -0.40625q0.1875 -0.125 0.5 -0.40625q0.3125 -0.296875 0.6875 -0.765625q0.0625 -0.09375 0.203125 -0.359375q0.140625 -0.28125 0.25 -0.515625q0.171875 -0.265625 0.328125 -0.78125q0.171875 -0.515625 0.078125 -0.84375q-0.09375 -0.484375 -0.453125 -0.875q-0.34375 -0.390625 -0.84375 -0.546875q-0.421875 -0.078125 -0.6875 -0.078125q-0.265625 0 -0.578125 0.0625q-0.3125 0.09375 -0.4375 0.265625q-0.125 0.15625 -0.359375 0.703125q-0.125 0.265625 -0.375 0.765625q-0.234375 0.5 -0.40625 0.96875q-0.328125 1.234375 -0.625 1.984375q-0.296875 0.734375 -0.375 0.9375q0.015625 0.203125 -0.03125 0.296875q-0.03125 0.078125 0.046875 0.171875zm6.378296 4.390625q-0.171875 -0.140625 -0.28125 -0.296875q-0.109375 -0.15625 -0.046875 -0.53125q0.046875 -0.515625 0.140625 -0.921875q0.09375 -0.40625 0.21875 -0.921875q0.046875 -0.21875 0.21875 -0.765625q0.1875 -0.546875 0.421875 -1.171875q0.25 -0.640625 0.5 -1.203125q0.265625 -0.578125 0.453125 -0.84375q0.171875 -0.140625 0.4375 -0.125q0.265625 0 0.421875 0.15625q0.203125 0.171875 0.09375 0.59375q-0.109375 0.40625 -0.5625 1.3125q-0.171875 0.40625 -0.296875 0.65625q-0.109375 0.25 -0.125 0.34375q0 0.078125 0.125 0q0.109375 -0.203125 0.40625 -0.46875q0.296875 -0.28125 0.625 -0.53125q0.34375 -0.265625 0.640625 -0.46875q0.296875 -0.203125 0.421875 -0.265625q0.140625 -0.09375 0.328125 -0.15625q0.203125 -0.0625 0.28125 -0.109375q0.4375 -0.203125 0.890625 -0.140625q0.46875 0.046875 0.578125 0.328125q0.03125 0.15625 0.125 0.234375q0.109375 0.0625 0.109375 0.0625q0.0625 0 0.078125 0.0625q0.015625 0.0625 0.015625 0.0625q0 0.125 -0.21875 0.21875q-0.21875 0.09375 -0.515625 0.109375q-0.234375 0.015625 -0.421875 0.09375q-0.1875 0.078125 -0.453125 0.1875q-0.703125 0.40625 -1.328125 0.78125q-0.609375 0.375 -1.203125 1.03125q-0.140625 0.140625 -0.28125 0.328125q-0.140625 0.171875 -0.28125 0.421875q-0.09375 0.09375 -0.1875 0.40625q-0.09375 0.3125 -0.15625 0.609375q-0.0625 0.28125 -0.0625 0.34375q0 0 -0.0625 0.171875q-0.0625 0.171875 -0.1875 0.34375q-0.21875 0.296875 -0.390625 0.328125q-0.171875 0.03125 -0.46875 -0.265625zm7.6537476 0.375q-0.25 0 -0.390625 -0.09375q-0.140625 -0.09375 -0.34375 -0.265625q-0.34375 -0.375 -0.53125 -0.75q-0.171875 -0.375 -0.125 -0.6875q0.0625 -0.15625 0.046875 -0.28125q0 -0.140625 0 -0.140625q-0.09375 -0.09375 -0.0625 -0.125q0.046875 -0.03125 0.078125 -0.109375q0.109375 0 0.078125 -0.203125q-0.046875 -0.140625 0.125 -0.640625q0.1875 -0.515625 0.46875 -0.96875q0.109375 -0.1875 0.328125 -0.484375q0.234375 -0.3125 0.5 -0.609375q0.265625 -0.3125 0.5 -0.5q0.46875 -0.390625 0.828125 -0.59375q0.375 -0.21875 0.796875 -0.3125q0.40625 -0.09375 0.65625 -0.09375q0.25 0 0.53125 0.3125q0.4375 0.1875 0.609375 0.46875q0.1875 0.265625 0.25 0.78125q0.0625 0.546875 -0.09375 1.296875q-0.15625 0.75 -0.890625 1.8125q-0.46875 0.671875 -0.890625 1.015625q-0.40625 0.34375 -0.9375 0.65625q-0.390625 0.265625 -0.75 0.375q-0.359375 0.09375 -0.78125 0.140625zm1.828125 -2.09375q0.421875 -0.453125 0.65625 -0.890625q0.25 -0.4375 0.484375 -1.09375q0.0625 -0.1875 0.078125 -0.46875q0.03125 -0.296875 0 -0.546875q-0.015625 -0.265625 -0.125 -0.296875q-0.203125 -0.140625 -0.484375 -0.09375q-0.265625 0.046875 -0.59375 0.328125q-0.578125 0.484375 -1.015625 1.171875q-0.4375 0.671875 -0.78125 1.578125q-0.203125 0.59375 -0.046875 0.9375q0.171875 0.34375 0.640625 0.234375q0.46875 -0.109375 1.1875 -0.859375zm4.0322266 4.390625q-0.140625 0.046875 -0.328125 -0.09375q-0.1875 -0.125 -0.421875 -0.40625q-0.125 -0.15625 -0.203125 -0.328125q-0.0625 -0.171875 -0.015625 -0.546875q0.046875 -0.203125 0.078125 -0.46875q0.03125 -0.25 0.03125 -0.328125q0 -0.125 0.0625 -0.53125q0.0625 -0.421875 0.140625 -0.859375q0.09375 -0.453125 0.125 -0.703125q0.015625 -0.03125 0.03125 -0.09375q0.015625 -0.0625 0.03125 -0.109375q0.046875 -0.21875 0.109375 -0.484375q0.078125 -0.28125 0.125 -0.625q0.15625 -0.5625 0.25 -0.984375q0.09375 -0.4375 0.125 -0.640625q0.015625 -0.28125 0.203125 -0.4375q0.046875 -0.109375 0.125 -0.28125q0.078125 -0.1875 0.171875 -0.328125q0.375 -1.0625 0.609375 -1.671875q0.25 -0.625 0.515625 -1.09375q0.078125 -0.21875 0.171875 -0.453125q0.09375 -0.234375 0.203125 -0.359375q0.125 -0.34375 0.453125 -0.765625q0.328125 -0.421875 0.71875 -0.828125q0.390625 -0.40625 0.734375 -0.703125q0.40625 -0.203125 0.6875 -0.296875q0.296875 -0.09375 0.671875 -0.09375q0.359375 0 0.53125 0.109375q0.1875 0.09375 0.421875 0.3125q0.265625 0.265625 0.328125 0.421875q0.0625 0.140625 0.0625 0.359375q-0.0625 0.234375 -0.203125 0.546875q-0.140625 0.296875 -0.3125 0.59375q-0.171875 0.28125 -0.328125 0.484375q-0.140625 0.1875 -0.21875 0.1875q-0.203125 0.0625 -0.296875 -0.078125q-0.078125 -0.140625 -0.109375 -0.40625q-0.03125 -0.109375 -0.09375 -0.203125q-0.046875 -0.109375 -0.0625 -0.140625q0 -0.0625 0.046875 -0.234375q0.046875 -0.171875 0.109375 -0.3125q0.046875 -0.171875 -0.015625 -0.265625q-0.046875 -0.09375 -0.21875 -0.03125q-0.09375 0.0625 -0.296875 0.234375q-0.203125 0.15625 -0.4375 0.34375q-0.21875 0.1875 -0.40625 0.390625q-0.1875 0.1875 -0.234375 0.3125q-0.046875 0.03125 -0.125 0.171875q-0.0625 0.140625 -0.21875 0.328125q-0.109375 0.1875 -0.203125 0.34375q-0.078125 0.15625 -0.09375 0.21875q-0.015625 0.09375 -0.03125 0.15625q0 0.0625 -0.078125 0.0625q0 -0.015625 -0.0625 0.171875q-0.0625 0.1875 -0.203125 0.453125q-0.0625 0.1875 -0.1875 0.375q-0.109375 0.1875 -0.171875 0.25l0.015625 0q0 0 -0.09375 0.234375q-0.078125 0.21875 -0.171875 0.46875q-0.09375 0.234375 -0.09375 0.265625q0 0.09375 0.28125 0.078125q0.296875 -0.015625 0.671875 -0.09375q0.390625 -0.078125 0.671875 -0.125q0.21875 -0.046875 0.3125 -0.03125q0.109375 0.015625 0.3125 0.078125q0.21875 0.15625 0.265625 0.453125q0.0625 0.28125 0 0.4375q-0.015625 0.09375 -0.3125 0.21875q-0.296875 0.109375 -0.75 0.203125q-0.390625 0.09375 -0.828125 0.1875q-0.4375 0.078125 -0.765625 0.15625q-0.3125 0.0625 -0.359375 0.125q-0.09375 0.03125 -0.15625 0.125q-0.046875 0.078125 -0.078125 0.171875q0 0.109375 -0.015625 0.1875q0 0.078125 -0.03125 0.140625q-0.046875 0.09375 -0.125 0.40625q-0.0625 0.296875 -0.15625 0.65625q-0.09375 0.359375 -0.15625 0.6875q-0.0625 0.3125 -0.09375 0.484375q-0.0625 0.140625 -0.09375 0.328125q-0.03125 0.171875 -0.03125 0.296875q-0.078125 0.140625 -0.109375 0.34375q-0.03125 0.1875 -0.03125 0.3125q0 0.015625 0 0.078125q0 0.046875 -0.03125 0.09375q-0.015625 0.140625 -0.046875 0.46875q-0.015625 0.34375 -0.015625 0.6875l-0.0625 0.53125q-0.015625 0.25 -0.0625 0.4375q-0.046875 0.203125 -0.15625 0.265625zm5.578125 -2.5q-0.28125 -0.03125 -0.515625 -0.375q-0.21875 -0.34375 -0.234375 -0.71875q0.015625 -0.21875 0.0625 -0.515625q0.046875 -0.3125 0.109375 -0.6875q0.09375 -0.34375 0.234375 -0.84375q0.140625 -0.515625 0.28125 -1.03125q0.15625 -0.515625 0.265625 -0.875q0.109375 -0.375 0.140625 -0.4375q0.0625 -0.140625 0.21875 -0.109375q0.171875 0.03125 0.3125 0.140625q0.125 0.09375 0.21875 0.296875q0.109375 0.1875 0.109375 0.53125q0.015625 0.34375 -0.125 0.921875q-0.03125 0.265625 -0.109375 0.46875q-0.0625 0.203125 -0.125 0.40625q-0.046875 0.1875 -0.109375 0.4375q-0.046875 0.25 -0.140625 0.609375q-0.078125 0.359375 -0.15625 0.890625q-0.09375 0.578125 -0.171875 0.75q-0.0625 0.15625 -0.265625 0.140625zm0.796875 -7.828125q-0.015625 -0.203125 0.078125 -0.515625q0.09375 -0.3125 0.265625 -0.578125q0.171875 -0.265625 0.4375 -0.28125q0.09375 0 0.15625 0.015625q0.0625 0.015625 0.296875 0.109375q0.21875 0.234375 0.390625 0.625q0.1875 0.375 0.109375 0.765625q-0.0625 0.390625 -0.546875 0.6875q-0.0625 0.03125 -0.140625 0.03125q-0.0625 0 -0.1875 -0.078125q-0.203125 0 -0.40625 -0.15625q-0.1875 -0.171875 -0.328125 -0.359375q-0.125 -0.203125 -0.125 -0.265625zm2.0319824 7.515625q-0.1875 -0.109375 -0.328125 -0.25q-0.125 -0.15625 -0.125 -0.359375q0 -0.28125 0.078125 -0.625q0.078125 -0.34375 0.15625 -0.640625q0.03125 -0.34375 0.09375 -0.6875q0.078125 -0.34375 0.25 -0.640625q0.21875 -0.703125 0.4375 -1.40625q0.21875 -0.703125 0.390625 -1.453125q0.25 -0.6875 0.4375 -1.21875q0.203125 -0.53125 0.5 -1.34375q0.15625 -0.46875 0.28125 -1.0q0.125 -0.53125 0.390625 -0.96875q0.109375 -0.171875 0.171875 -0.28125q0.0625 -0.125 0.140625 -0.234375q0.015625 -0.078125 0.140625 -0.109375q0.125 -0.03125 0.28125 0q0.15625 0.015625 0.234375 0.109375q0.046875 -0.015625 0.140625 0.109375q0.09375 0.125 0.1875 0.296875q0.09375 0.171875 0.078125 0.28125q0 0.078125 -0.03125 0.203125q-0.03125 0.125 -0.09375 0.25q-0.078125 0.0625 -0.140625 0.203125q-0.0625 0.140625 -0.203125 0.390625q-0.078125 0.234375 -0.140625 0.5q-0.046875 0.25 -0.140625 0.453125q-0.078125 0.21875 -0.1875 0.421875q-0.09375 0.203125 -0.125 0.34375q-0.125 0.421875 -0.3125 0.84375q-0.171875 0.40625 -0.296875 0.875q-0.140625 0.4375 -0.28125 0.921875q-0.125 0.46875 -0.359375 0.90625q-0.125 0.203125 -0.1875 0.515625q-0.0625 0.3125 -0.109375 0.640625q-0.109375 0.328125 -0.203125 0.625q-0.078125 0.28125 -0.078125 0.359375q-0.109375 0.40625 -0.15625 0.8125q-0.046875 0.390625 -0.203125 0.703125q-0.015625 0.1875 -0.09375 0.34375q-0.0625 0.140625 -0.21875 0.1875q-0.15625 0.046875 -0.375 -0.078125zm4.6776123 0.890625q-0.890625 0 -1.421875 -0.609375q-0.53125 -0.625 -0.515625 -1.65625q0.015625 -0.671875 0.25 -1.453125q0.25 -0.78125 0.65625 -1.515625q0.40625 -0.75 0.875 -1.296875q0.484375 -0.546875 0.984375 -0.765625q0.1875 -0.09375 0.390625 -0.140625q0.21875 -0.0625 0.453125 -0.0625q0.203125 0 0.4375 0.0625q0.25 0.046875 0.421875 0.125q0.34375 0.125 0.5625 0.375q0.234375 0.25 0.328125 0.75q0.03125 0.296875 0.015625 0.46875q-0.015625 0.171875 -0.109375 0.4375q-0.21875 0.640625 -0.625 1.15625q-0.40625 0.515625 -0.984375 0.8125q-0.140625 0.09375 -0.328125 0.140625q-0.171875 0.03125 -0.359375 0.03125q-0.375 0 -0.71875 -0.125q-0.328125 -0.140625 -0.546875 -0.375l-0.125 -0.15625l-0.078125 0.171875q-0.171875 0.453125 -0.265625 0.8125q-0.078125 0.359375 -0.078125 0.640625q0 0.21875 0.03125 0.4375q0.046875 0.21875 0.140625 0.359375q0.078125 0.125 0.234375 0.171875q0.15625 0.046875 0.359375 0.046875q0.109375 0 0.234375 -0.015625q0.140625 -0.015625 0.25 -0.046875q0.328125 -0.109375 0.53125 -0.25q0.203125 -0.140625 0.421875 -0.296875l0.078125 -0.03125l-0.015625 -0.015625q0.234375 -0.140625 0.390625 -0.234375q0.171875 -0.09375 0.1875 -0.09375q0.078125 -0.03125 0.140625 -0.09375q0.1875 -0.046875 0.421875 0.09375q0.25 0.140625 0.25 0.359375q-0.015625 0.109375 -0.171875 0.328125q-0.140625 0.203125 -0.34375 0.40625q-0.1875 0.1875 -0.34375 0.234375q-0.03125 0.015625 -0.125 0.0625q-0.09375 0.03125 -0.125 0.078125l0.015625 0q-0.171875 0.21875 -0.34375 0.21875l-0.140625 0q-0.078125 0.125 -0.5 0.296875q-0.40625 0.15625 -0.796875 0.15625zm0.890625 -4.234375q0.265625 0 0.484375 -0.15625q0.21875 -0.15625 0.390625 -0.34375q0.390625 -0.4375 0.484375 -0.921875q0.09375 -0.484375 -0.109375 -0.6875q-0.09375 -0.0625 -0.171875 -0.078125q-0.078125 -0.015625 -0.265625 0.03125q-0.171875 0.015625 -0.46875 0.234375q-0.28125 0.203125 -0.546875 0.484375q-0.265625 0.265625 -0.4375 0.53125l-0.25 0.390625q0.125 -0.046875 0.21875 -0.0625q0.109375 -0.015625 0.125 0.03125q0.046875 0.109375 0.109375 0.25q0.078125 0.125 0.171875 0.21875q0.09375 0.078125 0.265625 0.078125zm7.946594 5.390625q-0.25 -0.21875 -0.34375 -0.40625q-0.078125 -0.171875 -0.03125 -0.421875q0.046875 -0.234375 0.140625 -0.59375q0.15625 -0.59375 0.328125 -1.0q0.1875 -0.40625 0.359375 -0.84375q0.171875 -0.4375 0.3125 -1.125q0.296875 -0.6875 0.53125 -1.296875q0.234375 -0.625 0.359375 -1.015625q0.125 -0.390625 0.125 -0.390625q0.015625 -0.078125 0.15625 -0.390625q0.140625 -0.328125 0.375 -0.78125q0.234375 -0.453125 0.4375 -0.921875q0.328125 -0.890625 0.546875 -1.53125q0.21875 -0.65625 0.453125 -1.15625q0.234375 -0.515625 0.578125 -1.015625q0.21875 -0.40625 0.546875 -0.5q0.34375 -0.109375 0.640625 0.03125q0.296875 0.140625 0.40625 0.515625q0.09375 0.1875 0.15625 0.4375q0.078125 0.25 0.140625 0.734375q0.0625 0.484375 0.078125 1.390625q0.046875 1.0625 0.03125 2.046875q-0.015625 0.984375 0.015625 1.828125q0.046875 0.828125 0.21875 1.4375q0.046875 0.328125 0.125 0.8125q0.09375 0.46875 0.1875 0.9375q0.109375 0.46875 0.21875 0.796875q0.125 0.3125 0.1875 0.3125q0.09375 0 0.234375 -0.21875q0.140625 -0.21875 0.375 -0.8125q0.25 -0.59375 0.578125 -1.734375q0.34375 -1.140625 0.796875 -2.96875q0.09375 -0.3125 0.25 -1.015625q0.15625 -0.71875 0.234375 -1.453125q0.125 -0.453125 0.25 -1.015625q0.140625 -0.5625 0.234375 -0.984375q0.109375 -0.4375 0.109375 -0.5q0 -0.125 0 -0.21875q0.015625 -0.09375 0 -0.1875q0.09375 0 0.171875 -0.25q0.078125 -0.25 0.078125 -0.4375q0 -0.3125 0.078125 -0.5q0.09375 -0.203125 0.1875 -0.296875q0.109375 -0.234375 0.359375 -0.234375q0.265625 0 0.5 0.140625q0.25 0.140625 0.3125 0.375q0.03125 0.203125 -0.109375 0.921875q-0.140625 0.71875 -0.421875 1.921875q0 0.203125 -0.109375 0.671875q-0.109375 0.46875 -0.234375 1.0q-0.125 0.515625 -0.171875 0.890625q-0.078125 0.484375 -0.171875 0.90625q-0.09375 0.421875 -0.1875 0.390625q-0.484375 2.109375 -1.015625 3.59375q-0.53125 1.484375 -0.9375 2.421875q-0.453125 1.03125 -1.046875 1.265625q-0.578125 0.25 -1.171875 -0.515625q-0.359375 -0.484375 -0.59375 -0.953125q-0.21875 -0.484375 -0.34375 -1.125q-0.125 -0.65625 -0.296875 -1.609375q-0.21875 -0.75 -0.265625 -1.53125q-0.046875 -0.78125 -0.015625 -1.59375q0.03125 -0.828125 0.078125 -1.71875q-0.015625 -0.953125 -0.09375 -1.203125q-0.0625 -0.265625 -0.234375 0.078125q-0.15625 0.34375 -0.484375 1.234375q-0.125 0.359375 -0.328125 0.859375q-0.203125 0.484375 -0.40625 0.96875q-0.1875 0.484375 -0.34375 0.84375q-0.140625 0.359375 -0.1875 0.453125q-0.109375 0.21875 -0.265625 0.578125q-0.140625 0.359375 -0.234375 0.78125q-0.671875 1.75 -1.0 2.875q-0.328125 1.109375 -0.46875 1.53125q-0.1875 0.515625 -0.375 0.65625q-0.1875 0.15625 -0.59375 -0.171875zm12.040039 -1.34375l0.15625 -0.890625q0.125 -0.828125 0.25 -1.546875q0.140625 -0.734375 0.265625 -1.1875q0.125 -0.453125 0.15625 -0.453125q0.078125 -0.03125 0.078125 -0.15625q0 -0.125 0.015625 -0.3125l0.03125 -0.453125l-0.28125 0.03125q-0.21875 -0.03125 -0.265625 -0.09375q-0.03125 -0.0625 -0.03125 -0.328125q0.015625 -0.1875 0.046875 -0.3125q0.046875 -0.140625 0.21875 -0.15625q0.296875 -0.09375 0.625 -0.34375q0.328125 -0.265625 0.3125 -0.4375q0.015625 -0.15625 0.125 -0.546875q0.125 -0.40625 0.328125 -0.921875q0.21875 -0.515625 0.453125 -0.984375q0.078125 -0.234375 0.140625 -0.484375q0.0625 -0.265625 0.0625 -0.390625q0.046875 -0.15625 0.09375 -0.328125q0.0625 -0.1875 0.0625 -0.265625q0.109375 -0.203125 0.03125 -0.234375q-0.078125 -0.03125 -0.34375 0q0 0 -0.171875 0.03125q-0.171875 0.03125 -0.375 0.015625q-0.296875 0.078125 -0.421875 0q-0.109375 -0.09375 -0.171875 -0.25q-0.171875 -0.15625 -0.140625 -0.34375q0.03125 -0.1875 0.1875 -0.171875q0.09375 0.015625 0.15625 -0.03125q0.078125 -0.046875 0.140625 -0.125q0.078125 -0.0625 0.359375 -0.171875q0.28125 -0.125 0.6875 -0.140625q0.1875 -0.015625 0.5 -0.09375q0.3125 -0.078125 0.5625 -0.171875q0.25 -0.09375 0.28125 -0.125q0 -0.09375 0.09375 -0.09375q0.109375 0 0.1875 0q0.078125 -0.015625 0.28125 -0.046875q0.21875 -0.03125 0.28125 -0.015625q0.15625 -0.0625 0.65625 -0.109375q0.5 -0.046875 1.53125 -0.03125q0.296875 0.015625 0.5 0.03125q0.203125 0 0.203125 -0.078125q0 0 0.234375 0.03125q0.25 0.03125 0.546875 0.125q0.453125 0.015625 0.734375 0.125q0.28125 0.09375 0.40625 0.328125q0.125 0.234375 0.125 0.6875l0.03125 0.421875l-0.515625 -0.15625q-0.140625 -0.03125 -0.515625 -0.078125q-0.359375 -0.046875 -0.78125 -0.078125q-0.421875 -0.03125 -0.796875 -0.0625q-0.375 -0.03125 -0.546875 0q-0.1875 0 -0.390625 0.03125q-0.203125 0.03125 -0.421875 0.015625q-0.25 0.078125 -0.484375 0.078125q-0.234375 0 -0.3125 -0.03125q-0.1875 0.078125 -0.328125 0.078125q-0.140625 0 -0.25 0.09375q0 0 -0.109375 0.0625q-0.09375 0.046875 -0.171875 0.046875q-0.078125 -0.015625 -0.078125 0.09375q0 0.09375 -0.03125 0.375q0.015625 0.265625 -0.03125 0.453125q-0.03125 0.171875 -0.140625 0.453125q-0.109375 0.265625 -0.34375 0.890625q-0.125 0.3125 -0.28125 0.65625q-0.140625 0.328125 -0.171875 0.53125q-0.203125 0.5625 -0.390625 0.859375q0.03125 0.1875 0.0625 0.203125q0.03125 0 0.15625 -0.109375q0.15625 0.0625 0.25 0.015625q0.109375 -0.0625 0.1875 -0.09375q0.0625 0 0.140625 0q0.09375 0 0.234375 0.046875q-0.03125 -0.078125 0.140625 -0.078125q0.171875 -0.015625 0.375 -0.03125q0.203125 -0.09375 0.5 -0.140625q0.3125 -0.046875 0.453125 -0.125q0.203125 -0.09375 0.28125 -0.09375q0.09375 0 0.328125 0.109375q0.140625 0.171875 0.1875 0.4375q0.0625 0.25 0.03125 0.46875q-0.015625 0.21875 -0.109375 0.28125q0 0 -0.1875 0.078125q-0.171875 0.0625 -0.390625 0.140625q-0.203125 -0.046875 -0.390625 0q-0.1875 0.03125 -0.25 0.0625q-0.390625 0.25 -1.296875 0.171875q-0.125 0.09375 -0.3125 0.09375q-0.171875 0 -0.265625 0.078125q-0.046875 0 -0.21875 0.03125q-0.15625 0.015625 -0.21875 0q-0.078125 0 -0.109375 0.109375q-0.015625 0.09375 -0.015625 0.171875q0 0.078125 -0.0625 0.15625q-0.046875 0.0625 -0.046875 0.0625q-0.109375 0.125 -0.125 0.25q0 0 -0.015625 0.234375q0 0.21875 -0.09375 0.46875q-0.15625 0.484375 -0.296875 1.015625q-0.125 0.515625 -0.1875 0.890625q-0.0625 0.375 -0.03125 0.453125q0.078125 0.078125 0.203125 0.109375q0.125 0.03125 0.21875 0.0625q0.09375 -0.078125 0.171875 0.0625q0.078125 0.125 0.109375 0.328125q-0.03125 0.0625 -0.234375 0.296875q-0.1875 0.234375 -0.390625 0.5q-0.234375 0.578125 -0.515625 0.671875q-0.265625 0.09375 -0.640625 -0.25l-0.46875 -0.453125zm10.452942 0.578125q-0.25 0.046875 -0.5 -0.015625q-0.234375 -0.046875 -0.375 -0.328125q-0.125 -0.265625 -0.078125 -0.84375q0.0625 -0.578125 0.40625 -1.546875q0.0625 -0.15625 0.234375 -0.671875q0.1875 -0.515625 0.40625 -1.140625q0.21875 -0.640625 0.4375 -1.1875q0.21875 -0.546875 0.34375 -0.75q0.078125 -0.15625 0.078125 -0.265625q0.015625 -0.125 0.015625 -0.203125q0 -0.09375 0.078125 -0.25q0.09375 -0.15625 0.171875 -0.328125q0.09375 -0.171875 0.15625 -0.328125q0.0625 -0.171875 0.0625 -0.28125q0 0 0.09375 -0.328125q0.09375 -0.328125 0.234375 -0.75q0.15625 -0.4375 0.34375 -0.71875q0.171875 -0.421875 0.3125 -0.6875q0.140625 -0.28125 0.140625 -0.390625q0 -0.03125 -0.40625 -0.03125q-0.40625 0 -0.96875 0.03125q-0.546875 0.015625 -1.046875 0.0625q-0.5 0.03125 -0.703125 0.09375q-0.171875 0.03125 -0.296875 0.0625q-0.125 0.03125 -0.171875 0q-0.0625 -0.03125 -0.1875 -0.21875q-0.125 -0.203125 -0.15625 -0.4375q-0.03125 -0.25 0.1875 -0.359375q0.328125 -0.203125 0.625 -0.25q0.296875 -0.046875 0.640625 -0.046875q0.34375 -0.015625 0.8125 -0.078125q0.4375 0 0.75 -0.046875q0.3125 -0.046875 0.390625 -0.046875q0.1875 0 0.453125 -0.078125q0.28125 -0.078125 0.625 -0.078125q0.25 0 0.484375 -0.046875q0.25 -0.046875 0.4375 -0.046875q0.09375 0 0.4375 0q0.359375 0 0.71875 0q0.265625 0 0.703125 -0.0625q0.453125 -0.078125 0.734375 -0.15625q0.859375 -0.1875 1.359375 -0.078125q0.5 0.09375 0.65625 0.578125q0.078125 0.421875 -0.578125 0.625q-0.640625 0.203125 -2.296875 0.296875q-0.796875 0.078125 -1.109375 0.109375q-0.296875 0.03125 -0.296875 0.203125q0 0.109375 -0.078125 0.203125q-0.078125 0.078125 -0.15625 0.171875q-0.078125 0.03125 -0.234375 0.34375q-0.15625 0.296875 -0.296875 0.703125q-0.140625 0.390625 -0.25 0.71875q-0.109375 0.328125 -0.109375 0.421875q0 0 -0.078125 0.125q-0.0625 0.109375 -0.0625 0.1875q-0.078125 0.1875 -0.203125 0.4375q-0.109375 0.234375 -0.203125 0.421875q-0.28125 0.75 -0.46875 1.203125q-0.171875 0.4375 -0.28125 0.6875q-0.09375 0.25 -0.171875 0.4375q-0.0625 0.25 -0.234375 0.828125q-0.171875 0.578125 -0.359375 1.015625q-0.09375 0.140625 -0.15625 0.1875q-0.0625 0.046875 -0.0625 0.1875q0 0.015625 -0.09375 0.3125q-0.078125 0.296875 -0.21875 0.703125q-0.140625 0.390625 -0.265625 0.78125q-0.125 0.390625 -0.234375 0.65625q-0.109375 0.28125 -0.140625 0.28125z" fill-rule="nonzero"/><path fill="#ead1dc" d="m735.57745 312.3517l59.810974 0l0 30.897614l-59.810974 0z" fill-rule="evenodd"/><path stroke="#000000" strokeWidth="1.0" strokeLinejoin="round" strokeLinecap="butt" stroke-dasharray="1.0,3.0" d="m735.57745 312.3517l59.810974 0l0 30.897614l-59.810974 0z" fill-rule="evenodd"/><path fill="#000000" d="m748.5931 335.54865q-0.15625 0 -0.34375 -0.25q-0.1875 -0.25 -0.171875 -0.46875q0.03125 -0.296875 0.171875 -0.859375q0.15625 -0.5625 0.34375 -1.140625q0.1875 -0.578125 0.328125 -0.90625q0.078125 -0.296875 0.140625 -0.53125q0.0625 -0.234375 0.09375 -0.3125q0.046875 -0.078125 0.171875 -0.390625q0.125 -0.3125 0.1875 -0.609375q0.046875 -0.15625 0.15625 -0.578125q0.125 -0.421875 0.296875 -0.96875q0.1875 -0.5625 0.359375 -1.09375q0.1875 -0.546875 0.3125 -0.953125q0.125 -0.421875 0.171875 -0.546875q0.140625 -0.234375 0.21875 -0.4375q0.078125 -0.203125 0.09375 -0.28125q0.109375 -0.078125 0.125 -0.1875q0.03125 -0.125 0.03125 -0.203125q0 -0.09375 0.0625 -0.140625q0.0625 -0.0625 0.0625 -0.140625q0.078125 -0.046875 0.09375 -0.171875q0.015625 -0.125 0.109375 -0.21875l0.09375 -0.3125l1.109375 -0.015625q-0.046875 0.21875 -0.125 0.546875q-0.0625 0.328125 -0.34375 0.859375q-0.09375 0.375 -0.21875 0.6875q-0.125 0.296875 -0.109375 0.390625q-0.03125 0.03125 -0.15625 0.375q-0.125 0.328125 -0.28125 0.8125q-0.15625 0.484375 -0.3125 0.96875q-0.15625 0.484375 -0.28125 0.859375q-0.125 0.359375 -0.15625 0.453125q-0.15625 0.296875 -0.34375 0.875q-0.171875 0.578125 -0.546875 1.5625q-0.15625 0.296875 -0.375 0.90625q-0.203125 0.59375 -0.34375 1.078125q-0.203125 0.71875 -0.296875 1.0q-0.078125 0.296875 -0.140625 0.328125q-0.046875 0.03125 -0.1875 0.015625zm0.140625 -11.125q-0.515625 0.015625 -0.765625 -0.046875q-0.25 -0.078125 -0.1875 -0.390625q0.0625 -0.21875 0.25 -0.328125q0.1875 -0.109375 0.546875 -0.171875q0.203125 -0.03125 0.515625 -0.078125q0.328125 -0.0625 0.640625 -0.125q0.609375 -0.078125 1.0 -0.125q0.40625 -0.0625 0.828125 -0.09375q0.4375 -0.046875 1.09375 -0.078125q0.546875 -0.03125 0.921875 -0.0625q0.390625 -0.03125 0.390625 -0.03125q0.046875 0 0.375 0.046875q0.34375 0.03125 0.734375 0.09375q0.390625 0.046875 0.578125 0.125q0.4375 0.09375 0.625 0.265625q0.203125 0.15625 0.28125 0.46875q0.046875 0.234375 -0.015625 0.28125q-0.046875 0.046875 -0.203125 0.125q-0.421875 0.125 -0.625 0.125q-0.203125 0 -0.46875 -0.09375q-0.09375 -0.09375 -0.21875 -0.171875q-0.125 -0.078125 -0.421875 -0.125q-0.28125 -0.046875 -0.890625 -0.078125q-0.515625 0.0625 -0.921875 0.0625q-0.390625 0 -0.390625 0.09375l-1.09375 0.046875l-0.90625 0.09375q-0.1875 0.015625 -0.53125 0.046875q-0.328125 0.03125 -0.65625 0.0625q-0.3125 0.03125 -0.484375 0.0625zm10.794556 10.625q-0.609375 0.1875 -1.171875 0.296875q-0.5625 0.109375 -1.1875 0q-0.625 -0.109375 -1.4375 -0.5q-0.015625 -0.203125 -0.15625 -0.375q-0.140625 -0.171875 -0.3125 -0.203125q-0.0625 -0.015625 -0.171875 -0.171875q-0.109375 -0.171875 -0.203125 -0.265625q-0.046875 -0.234375 -0.0625 -0.375q0 -0.15625 0.03125 -0.40625q0.03125 -0.25 0.109375 -0.71875q0.09375 -0.234375 0.265625 -0.734375q0.1875 -0.5 0.421875 -1.09375q0.234375 -0.609375 0.484375 -1.1875q0.671875 -1.6875 1.046875 -2.640625q0.390625 -0.953125 0.53125 -1.40625q0.15625 -0.46875 0.15625 -0.671875q0 -0.203125 -0.078125 -0.421875q-0.125 -0.34375 0 -0.625q0.125 -0.28125 0.484375 -0.40625q0.34375 -0.1875 0.71875 -0.34375q0.390625 -0.171875 0.765625 -0.28125q0.375 -0.109375 0.6875 -0.140625q0.265625 -0.046875 0.640625 0q0.375 0.03125 0.734375 0.125q0.359375 0.09375 0.625 0.21875q0.265625 0.109375 0.3125 0.265625q0 0 0.046875 0.015625q0.0625 0.015625 0.0625 0.015625q0 0 0.078125 0.03125q0.078125 0.015625 0.234375 0.15625q0.203125 0.15625 0.34375 0.5q0.15625 0.34375 0.078125 0.625q0 0.078125 0.046875 0.25q0.046875 0.15625 0.078125 0.359375q0.09375 0.515625 -0.109375 1.125q-0.203125 0.609375 -0.84375 1.3125q-0.21875 0.25 -0.40625 0.5q-0.171875 0.234375 -0.25 0.21875q-0.1875 0.171875 -0.28125 0.375q-0.09375 0.1875 0.0625 0.21875q0 0 0.125 0.1875q0.140625 0.1875 0.359375 0.453125q0.359375 0.546875 0.453125 1.28125q0.109375 0.734375 -0.09375 1.40625q-0.125 0.46875 -0.609375 1.0625q-0.484375 0.578125 -1.171875 1.109375q-0.6875 0.53125 -1.4375 0.859375zm-2.0625 -0.734375q0.65625 0.09375 1.40625 -0.140625q0.75 -0.25 1.421875 -0.765625q0.6875 -0.515625 1.09375 -1.171875q0.515625 -0.65625 0.5 -1.1875q0 -0.53125 -0.3125 -1.015625q-0.28125 -0.421875 -0.640625 -0.515625q-0.34375 -0.109375 -0.75 -0.03125q-0.390625 0.0625 -0.8125 0.203125q-0.359375 0.046875 -0.828125 0.203125q-0.453125 0.140625 -0.84375 0.265625q-0.375 0.125 -0.5 0.125q0 0 -0.109375 0.109375q-0.109375 0.109375 -0.21875 0.234375q-0.109375 0.125 -0.125 0.1875q-0.09375 0.046875 -0.21875 0.296875q-0.109375 0.25 -0.1875 0.5625q-0.078125 0.296875 -0.125 0.546875q-0.03125 0.25 0 0.25q0.09375 0.015625 -0.015625 0.296875q-0.09375 0.28125 -0.125 0.453125q-0.15625 0.453125 0.296875 0.75q0.46875 0.296875 1.09375 0.34375zm0.296875 -5.28125q0.15625 -0.015625 0.5 -0.15625q0.359375 -0.140625 0.65625 -0.21875q0.84375 -0.125 1.5625 -0.59375q0.71875 -0.484375 1.234375 -1.125q0.515625 -0.65625 0.71875 -1.25q0.109375 -0.203125 0.15625 -0.625q0.0625 -0.421875 0.03125 -0.609375l0 -0.140625q-0.140625 -0.359375 -0.65625 -0.5q-0.515625 -0.15625 -1.21875 -0.109375q-0.6875 0.046875 -1.3125 0.28125q-0.265625 0.140625 -0.328125 0.390625q-0.046875 0.25 -0.140625 0.6875q-0.078125 0.453125 -0.265625 0.921875q-0.1875 0.46875 -0.296875 0.84375q-0.015625 0.078125 -0.09375 0.140625q-0.078125 0.046875 -0.078125 0.171875q0 0 -0.125 0.265625q-0.109375 0.265625 -0.203125 0.578125q-0.140625 0.3125 -0.203125 0.5625q-0.0625 0.234375 -0.0625 0.234375q0 0 0.03125 0.171875q0.03125 0.171875 0.09375 0.078125zm6.192627 6.296875q-0.328125 -0.1875 -0.359375 -0.40625q-0.03125 -0.21875 0.25 -0.78125q0.28125 -0.5625 0.875 -1.734375q0.453125 -0.84375 0.6875 -1.3125q0.234375 -0.484375 0.3125 -0.6875q0.09375 -0.203125 0.09375 -0.265625q-0.046875 -0.15625 0.03125 -0.25q0.078125 -0.109375 0.25 -0.1875q0.078125 -0.09375 0.296875 -0.328125q0.21875 -0.25 0.40625 -0.59375q0.171875 -0.390625 0.390625 -0.796875q0.21875 -0.40625 0.59375 -1.03125q0.375 -0.625 0.96875 -1.640625q0.375 -0.65625 0.8125 -1.328125q0.453125 -0.6875 0.96875 -1.359375q0.203125 -0.25 0.359375 -0.40625q0.171875 -0.171875 0.34375 -0.15625q0.21875 0 0.5 0.15625q0.296875 0.15625 0.53125 0.40625q0.25 0.234375 0.375 0.515625q0.09375 0.140625 0.0625 0.625q-0.015625 0.484375 -0.078125 1.1875q-0.046875 0.6875 -0.125 1.46875q-0.046875 0.765625 -0.171875 1.8125q-0.109375 1.03125 -0.21875 2.171875q-0.09375 1.140625 -0.15625 2.203125q-0.046875 1.046875 0.015625 1.828125q0.015625 0.171875 -0.015625 0.3125q-0.015625 0.15625 -0.015625 0.25q-0.109375 0.109375 -0.359375 0.09375q-0.25 0 -0.484375 -0.109375q-0.234375 -0.109375 -0.265625 -0.28125q-0.0625 -0.0625 -0.078125 -0.15625q0 -0.109375 0.015625 -0.4375q0.015625 -0.34375 0.046875 -1.0625l0.09375 -3.03125l-0.25 0.015625q-0.171875 0 -0.640625 0.046875q-0.453125 0.03125 -1.0 0.09375q-0.546875 0.0625 -1.0 0.140625q-0.453125 0.0625 -0.625 0.109375q-0.171875 0 -0.40625 0.234375q-0.234375 0.21875 -0.4375 0.578125q-0.0625 0.25 -0.265625 0.546875q-0.1875 0.28125 -0.1875 0.375q-0.140625 0.09375 -0.234375 0.234375q-0.078125 0.125 -0.078125 0.125q0 0.109375 -0.171875 0.546875q-0.171875 0.4375 -0.4375 0.96875q-0.265625 0.53125 -0.515625 0.9375l-0.40625 0.59375l-0.296875 -0.234375zm3.875 -6.0q0 0 0.1875 -0.03125q0.203125 -0.046875 0.46875 -0.09375q0.265625 -0.046875 0.5 -0.046875q0.78125 -0.1875 1.125 -0.25q0.359375 -0.0625 0.5 -0.0625q0.140625 0 0.25 0.046875q0.078125 0.09375 0.140625 0.125q0.0625 0.015625 0.0625 0.015625q0.015625 -0.046875 0.046875 -0.4375q0.046875 -0.390625 0.109375 -0.96875q0.078125 -0.578125 0.140625 -1.203125q0.0625 -0.625 0.09375 -1.15625q0.046875 -0.53125 0.0625 -0.8125q0.015625 -0.34375 0.03125 -0.625q0.03125 -0.296875 0.03125 -0.296875q-0.125 0 -0.484375 0.40625q-0.359375 0.40625 -0.8125 1.078125q-0.453125 0.671875 -0.84375 1.4375q-0.1875 0.359375 -0.359375 0.640625q-0.15625 0.28125 -0.25 0.28125q-0.03125 0.03125 -0.21875 0.328125q-0.171875 0.28125 -0.375 0.65625q-0.203125 0.359375 -0.34375 0.65625q-0.125 0.28125 -0.0625 0.3125z" fill-rule="nonzero"/></g></svg>